STARTFONT 2.1
COMMENT $Xorg: $
COMMENT ISO10646-1 extension by Markus Kuhn <mkuhn@acm.org>, 2001-03-20
COMMENT  (c) Copyright Bigelow & Holmes 1986, 1985. Lucida is a registered
COMMENT  trademark of Bigelow & Holmes. See LEGAL NOTICE file for terms 
COMMENT  of the license. 
FONT -B&H-LucidaBright-Medium-R-Normal--18-180-75-75-P-103-ISO10646-1
SIZE 18 72 72
FONTBOUNDINGBOX 29 27 -11 -6
STARTPROPERTIES 22
COMMENT Begin LogicalFontDescription
FONTNAME_REGISTRY ""
FOUNDRY "B&H"
FAMILY_NAME "LucidaBright"
WEIGHT_NAME "Medium"
SLANT "R"
SETWIDTH_NAME "Normal"
ADD_STYLE_NAME ""
PIXEL_SIZE 18
POINT_SIZE 180
RESOLUTION_X 75
RESOLUTION_Y 75
SPACING "P"
AVERAGE_WIDTH 103
CHARSET_REGISTRY "ISO10646"
CHARSET_ENCODING "1"
COMMENT END LogicalFontDescription
FONT_ASCENT 16
FONT_DESCENT 4
DEFAULT_CHAR 0
COPYRIGHT "Copyright Bigelow & Holmes 1986, 1985."
FACE_NAME "Lucida Bright"
X_HEIGHT 9
CAP_HEIGHT 13
ENDPROPERTIES
CHARS 756
STARTCHAR char0
ENCODING 0
SWIDTH 771 0
DWIDTH 14 0
BBX 13 13 0 0
BITMAP
AAA8
0000
8008
0000
8008
0000
8008
0000
8008
0000
8008
0000
AAA8
ENDCHAR
STARTCHAR space
ENCODING 32
SWIDTH 333 0
DWIDTH 6 0
BBX 1 1 0 0
BITMAP
00
ENDCHAR
STARTCHAR exclam
ENCODING 33
SWIDTH 265 0
DWIDTH 5 0
BBX 2 13 1 0
BITMAP
C0
C0
C0
C0
C0
C0
80
80
80
80
00
C0
C0
ENDCHAR
STARTCHAR quotedbl
ENCODING 34
SWIDTH 386 0
DWIDTH 7 0
BBX 6 4 0 9
BITMAP
CC
CC
48
48
ENDCHAR
STARTCHAR numbersign
ENCODING 35
SWIDTH 608 0
DWIDTH 11 0
BBX 11 13 0 0
BITMAP
0480
0C80
0880
0900
7FE0
0900
1100
1200
FFC0
1200
2200
2600
2400
ENDCHAR
STARTCHAR dollar
ENCODING 36
SWIDTH 608 0
DWIDTH 11 0
BBX 7 15 2 -1
BITMAP
10
3E
D2
D2
D0
D0
70
38
1C
16
16
96
94
F8
10
ENDCHAR
STARTCHAR percent
ENCODING 37
SWIDTH 675 0
DWIDTH 12 0
BBX 13 13 0 0
BITMAP
7818
C430
8460
84C0
8480
7900
02F0
0588
0908
1908
3108
6108
C0F0
ENDCHAR
STARTCHAR ampersand
ENCODING 38
SWIDTH 690 0
DWIDTH 12 0
BBX 11 13 1 0
BITMAP
1E00
3300
3300
3300
1E00
3800
4CE0
CC40
C640
C740
C380
6380
3CE0
ENDCHAR
STARTCHAR quotesingle
ENCODING 39
SWIDTH 241 0
DWIDTH 4 0
BBX 3 4 1 9
BITMAP
E0
E0
40
40
ENDCHAR
STARTCHAR parenleft
ENCODING 40
SWIDTH 316 0
DWIDTH 6 0
BBX 4 16 1 -3
BITMAP
10
20
20
40
40
C0
C0
C0
C0
C0
C0
40
40
20
20
10
ENDCHAR
STARTCHAR parenright
ENCODING 41
SWIDTH 316 0
DWIDTH 6 0
BBX 4 16 1 -3
BITMAP
80
40
40
20
20
30
30
30
30
30
30
20
20
40
40
80
ENDCHAR
STARTCHAR asterisk
ENCODING 42
SWIDTH 470 0
DWIDTH 8 0
BBX 7 7 1 6
BITMAP
10
10
D6
28
28
28
44
ENDCHAR
STARTCHAR plus
ENCODING 43
SWIDTH 608 0
DWIDTH 11 0
BBX 11 11 0 0
BITMAP
0400
0400
0400
0400
0400
FFE0
0400
0400
0400
0400
0400
ENDCHAR
STARTCHAR comma
ENCODING 44
SWIDTH 265 0
DWIDTH 5 0
BBX 2 5 1 -3
BITMAP
C0
C0
40
40
80
ENDCHAR
STARTCHAR hyphen
ENCODING 45
SWIDTH 325 0
DWIDTH 6 0
BBX 4 1 1 5
BITMAP
F0
ENDCHAR
STARTCHAR period
ENCODING 46
SWIDTH 265 0
DWIDTH 5 0
BBX 2 2 1 0
BITMAP
C0
C0
ENDCHAR
STARTCHAR slash
ENCODING 47
SWIDTH 512 0
DWIDTH 9 0
BBX 9 16 0 -3
BITMAP
0080
0100
0100
0200
0200
0400
0400
0800
0800
1000
1000
2000
2000
4000
4000
8000
ENDCHAR
STARTCHAR zero
ENCODING 48
SWIDTH 608 0
DWIDTH 11 0
BBX 9 13 1 0
BITMAP
1C00
6300
4100
C180
C180
C180
C180
C180
C180
C180
4100
6300
1C00
ENDCHAR
STARTCHAR one
ENCODING 49
SWIDTH 608 0
DWIDTH 11 0
BBX 6 13 2 0
BITMAP
F0
30
30
30
30
30
30
30
30
30
30
30
FC
ENDCHAR
STARTCHAR two
ENCODING 50
SWIDTH 608 0
DWIDTH 11 0
BBX 8 13 1 0
BITMAP
7C
C6
83
83
03
06
0C
18
20
40
40
FF
FF
ENDCHAR
STARTCHAR three
ENCODING 51
SWIDTH 608 0
DWIDTH 11 0
BBX 8 13 1 0
BITMAP
FC
87
83
03
03
04
7C
07
03
03
83
C6
FC
ENDCHAR
STARTCHAR four
ENCODING 52
SWIDTH 608 0
DWIDTH 11 0
BBX 10 13 0 0
BITMAP
0300
0700
0F00
0B00
1300
2300
6300
C300
FFC0
0300
0300
0300
0FC0
ENDCHAR
STARTCHAR five
ENCODING 53
SWIDTH 608 0
DWIDTH 11 0
BBX 7 13 2 0
BITMAP
FE
FE
80
80
80
F0
0C
06
06
06
86
8C
F8
ENDCHAR
STARTCHAR six
ENCODING 54
SWIDTH 608 0
DWIDTH 11 0
BBX 9 13 1 0
BITMAP
1F00
2100
6100
C000
C000
DE00
E300
C180
C180
C180
4180
6300
1E00
ENDCHAR
STARTCHAR seven
ENCODING 55
SWIDTH 608 0
DWIDTH 11 0
BBX 8 13 2 0
BITMAP
FF
FF
02
02
04
0C
08
10
30
30
20
60
60
ENDCHAR
STARTCHAR eight
ENCODING 56
SWIDTH 608 0
DWIDTH 11 0
BBX 9 13 1 0
BITMAP
3E00
6380
C180
C180
E300
3A00
3E00
4700
C180
C180
C180
6300
3E00
ENDCHAR
STARTCHAR nine
ENCODING 57
SWIDTH 608 0
DWIDTH 11 0
BBX 9 13 1 0
BITMAP
3C00
6300
C100
C180
C180
C180
6380
3D80
0180
0180
4300
4200
7C00
ENDCHAR
STARTCHAR colon
ENCODING 58
SWIDTH 265 0
DWIDTH 5 0
BBX 2 9 1 0
BITMAP
C0
C0
00
00
00
00
00
C0
C0
ENDCHAR
STARTCHAR semicolon
ENCODING 59
SWIDTH 265 0
DWIDTH 5 0
BBX 2 12 1 -3
BITMAP
C0
C0
00
00
00
00
00
C0
C0
40
40
80
ENDCHAR
STARTCHAR less
ENCODING 60
SWIDTH 608 0
DWIDTH 11 0
BBX 10 11 0 0
BITMAP
0040
0180
0600
0C00
3000
C000
3000
0C00
0700
0180
0040
ENDCHAR
STARTCHAR equal
ENCODING 61
SWIDTH 608 0
DWIDTH 11 0
BBX 10 4 0 3
BITMAP
FFC0
0000
0000
FFC0
ENDCHAR
STARTCHAR greater
ENCODING 62
SWIDTH 608 0
DWIDTH 11 0
BBX 10 11 0 0
BITMAP
8000
6000
3800
0C00
0300
00C0
0300
0C00
1800
6000
8000
ENDCHAR
STARTCHAR question
ENCODING 63
SWIDTH 480 0
DWIDTH 9 0
BBX 7 13 1 0
BITMAP
F8
8E
86
06
04
0C
18
30
30
30
00
30
30
ENDCHAR
STARTCHAR at
ENCODING 64
SWIDTH 873 0
DWIDTH 16 0
BBX 15 13 0 0
BITMAP
03F0
0C18
1004
23E2
4442
8442
88C2
88C6
894C
8678
4000
3080
1F00
ENDCHAR
STARTCHAR A
ENCODING 65
SWIDTH 744 0
DWIDTH 13 0
BBX 13 13 0 0
BITMAP
0200
0600
0700
0700
0980
0980
11C0
10C0
3FC0
2060
2060
4030
E0F8
ENDCHAR
STARTCHAR B
ENCODING 66
SWIDTH 609 0
DWIDTH 11 0
BBX 10 13 0 0
BITMAP
FF00
3380
3180
3180
3180
3200
3F00
3380
30C0
30C0
30C0
31C0
FF00
ENDCHAR
STARTCHAR C
ENCODING 67
SWIDTH 695 0
DWIDTH 12 0
BBX 10 13 1 0
BITMAP
1F80
30C0
6040
E040
C000
C000
C000
C000
C000
6000
6000
3040
1F80
ENDCHAR
STARTCHAR D
ENCODING 68
SWIDTH 768 0
DWIDTH 14 0
BBX 13 13 0 0
BITMAP
FF80
3060
3030
3018
3018
3018
3018
3018
3018
3010
3030
3060
FF80
ENDCHAR
STARTCHAR E
ENCODING 69
SWIDTH 566 0
DWIDTH 10 0
BBX 10 13 0 0
BITMAP
FFC0
3040
3040
3000
3000
3100
3F00
3100
3000
3000
3040
3040
FFC0
ENDCHAR
STARTCHAR F
ENCODING 70
SWIDTH 548 0
DWIDTH 10 0
BBX 9 13 0 0
BITMAP
FF80
3080
3080
3000
3000
3100
3F00
3100
3000
3000
3000
3000
F800
ENDCHAR
STARTCHAR G
ENCODING 71
SWIDTH 732 0
DWIDTH 13 0
BBX 13 13 1 0
BITMAP
0FC0
3860
6020
6000
C000
C000
C000
C1F8
C060
6060
6060
3860
0FC0
ENDCHAR
STARTCHAR H
ENCODING 72
SWIDTH 771 0
DWIDTH 14 0
BBX 14 13 0 0
BITMAP
FCFC
3030
3030
3030
3030
3030
3FF0
3030
3030
3030
3030
3030
FCFC
ENDCHAR
STARTCHAR I
ENCODING 73
SWIDTH 325 0
DWIDTH 6 0
BBX 6 13 0 0
BITMAP
FC
30
30
30
30
30
30
30
30
30
30
30
FC
ENDCHAR
STARTCHAR J
ENCODING 74
SWIDTH 422 0
DWIDTH 8 0
BBX 8 16 0 -3
BITMAP
3F
0C
0C
0C
0C
0C
0C
0C
0C
0C
0C
0C
0C
8C
98
F0
ENDCHAR
STARTCHAR K
ENCODING 75
SWIDTH 708 0
DWIDTH 13 0
BBX 12 13 1 0
BITMAP
FCE0
30C0
3180
3300
3600
3400
3C00
3600
3700
3380
31C0
30E0
F9F0
ENDCHAR
STARTCHAR L
ENCODING 76
SWIDTH 557 0
DWIDTH 10 0
BBX 10 13 0 0
BITMAP
FC00
3000
3000
3000
3000
3000
3000
3000
3000
3000
3040
3040
FFC0
ENDCHAR
STARTCHAR M
ENCODING 77
SWIDTH 860 0
DWIDTH 15 0
BBX 15 13 0 0
BITMAP
F01E
3818
3838
3838
2C58
2C58
2658
2698
2798
2318
2318
2318
F87E
ENDCHAR
STARTCHAR N
ENCODING 78
SWIDTH 751 0
DWIDTH 14 0
BBX 14 13 0 0
BITMAP
F07C
3010
3810
2C10
2E10
2710
2390
2190
20D0
20F0
2070
2030
F810
ENDCHAR
STARTCHAR O
ENCODING 79
SWIDTH 777 0
DWIDTH 14 0
BBX 12 13 1 0
BITMAP
1F80
30C0
6060
6060
C030
C030
C030
C030
C030
6060
6060
30C0
1F80
ENDCHAR
STARTCHAR P
ENCODING 80
SWIDTH 573 0
DWIDTH 10 0
BBX 10 13 0 0
BITMAP
FF00
3180
30C0
30C0
30C0
30C0
3380
3F00
3000
3000
3000
3000
FC00
ENDCHAR
STARTCHAR Q
ENCODING 81
SWIDTH 778 0
DWIDTH 14 0
BBX 14 16 1 -3
BITMAP
1F80
30C0
6060
6060
C030
C030
C030
C030
C030
6070
6060
30C0
1F80
0180
0070
001C
ENDCHAR
STARTCHAR R
ENCODING 82
SWIDTH 679 0
DWIDTH 12 0
BBX 12 13 0 0
BITMAP
FF00
3180
30C0
30C0
30C0
3180
3F00
3300
3300
3180
31C0
30E0
F870
ENDCHAR
STARTCHAR S
ENCODING 83
SWIDTH 542 0
DWIDTH 10 0
BBX 8 13 1 0
BITMAP
3E
62
C2
C0
E0
78
3C
0E
03
03
83
86
FC
ENDCHAR
STARTCHAR T
ENCODING 84
SWIDTH 663 0
DWIDTH 12 0
BBX 12 13 0 0
BITMAP
FFF0
8610
0600
0600
0600
0600
0600
0600
0600
0600
0600
0600
1F80
ENDCHAR
STARTCHAR U
ENCODING 85
SWIDTH 719 0
DWIDTH 13 0
BBX 13 13 0 0
BITMAP
FCF8
3020
3020
3020
3020
3020
3020
3020
3020
3020
3020
1840
0F80
ENDCHAR
STARTCHAR V
ENCODING 86
SWIDTH 699 0
DWIDTH 13 0
BBX 13 13 0 0
BITMAP
F838
6010
3030
3020
1820
1840
1C40
0C80
0C80
0680
0700
0300
0200
ENDCHAR
STARTCHAR W
ENCODING 87
SWIDTH 925 0
DWIDTH 17 0
BBX 17 13 0 0
BITMAP
F88780
60C100
70C200
31C200
31E200
316400
1A6400
1A6400
1A3C00
1C3800
0C3800
0C1800
081000
ENDCHAR
STARTCHAR X
ENCODING 88
SWIDTH 657 0
DWIDTH 12 0
BBX 12 13 0 0
BITMAP
F8F0
7060
3840
1880
0D00
0F00
0700
0B00
1B80
1180
20C0
40E0
F1F0
ENDCHAR
STARTCHAR Y
ENCODING 89
SWIDTH 678 0
DWIDTH 12 0
BBX 12 13 0 0
BITMAP
F870
7020
3040
38C0
1C80
0D00
0F00
0600
0600
0600
0600
0600
1F80
ENDCHAR
STARTCHAR Z
ENCODING 90
SWIDTH 633 0
DWIDTH 11 0
BBX 9 13 1 0
BITMAP
FF80
8380
8300
0600
0E00
0C00
1C00
1800
3000
7000
6080
C080
FF80
ENDCHAR
STARTCHAR bracketleft
ENCODING 91
SWIDTH 316 0
DWIDTH 6 0
BBX 4 16 1 -3
BITMAP
F0
C0
C0
C0
C0
C0
C0
C0
C0
C0
C0
C0
C0
C0
C0
F0
ENDCHAR
STARTCHAR backslash
ENCODING 92
SWIDTH 512 0
DWIDTH 9 0
BBX 9 16 0 -3
BITMAP
8000
4000
4000
2000
2000
1000
1000
0800
0800
0400
0400
0200
0200
0100
0100
0080
ENDCHAR
STARTCHAR bracketright
ENCODING 93
SWIDTH 316 0
DWIDTH 6 0
BBX 4 16 0 -3
BITMAP
F0
30
30
30
30
30
30
30
30
30
30
30
30
30
30
F0
ENDCHAR
STARTCHAR asciicircum
ENCODING 94
SWIDTH 608 0
DWIDTH 11 0
BBX 11 11 0 2
BITMAP
0400
0400
0A00
0A00
1100
1100
2080
2080
4040
4040
8020
ENDCHAR
STARTCHAR underscore
ENCODING 95
SWIDTH 500 0
DWIDTH 9 0
BBX 7 1 1 -1
BITMAP
FE
ENDCHAR
STARTCHAR grave
ENCODING 96
SWIDTH 602 0
DWIDTH 11 0
BBX 4 3 3 10
BITMAP
C0
20
10
ENDCHAR
STARTCHAR a
ENCODING 97
SWIDTH 543 0
DWIDTH 10 0
BBX 8 9 1 0
BITMAP
7C
46
46
06
3E
E6
C6
C6
7B
ENDCHAR
STARTCHAR b
ENCODING 98
SWIDTH 611 0
DWIDTH 11 0
BBX 11 13 0 0
BITMAP
F000
3000
3000
3000
3780
38C0
3060
3060
3060
3060
3060
38C0
2780
ENDCHAR
STARTCHAR c
ENCODING 99
SWIDTH 509 0
DWIDTH 9 0
BBX 7 9 1 0
BITMAP
3E
62
C2
C0
C0
C0
C0
60
3E
ENDCHAR
STARTCHAR d
ENCODING 100
SWIDTH 642 0
DWIDTH 12 0
BBX 11 13 1 0
BITMAP
0780
0180
0180
0180
3D80
6380
C180
C180
C180
C180
C180
6380
3DE0
ENDCHAR
STARTCHAR e
ENCODING 101
SWIDTH 530 0
DWIDTH 10 0
BBX 8 9 1 0
BITMAP
3C
62
C3
C3
FF
C0
C0
61
3E
ENDCHAR
STARTCHAR f
ENCODING 102
SWIDTH 404 0
DWIDTH 7 0
BBX 7 14 1 0
BITMAP
1E
32
32
30
30
FC
30
30
30
30
30
30
30
F8
ENDCHAR
STARTCHAR g
ENCODING 103
SWIDTH 571 0
DWIDTH 10 0
BBX 10 12 0 -3
BITMAP
3FC0
7600
6300
6300
2300
1700
7E00
6000
3F80
C180
C180
7E00
ENDCHAR
STARTCHAR h
ENCODING 104
SWIDTH 633 0
DWIDTH 11 0
BBX 12 13 0 0
BITMAP
F000
3000
3000
3000
3780
38C0
30C0
30C0
30C0
30C0
30C0
30C0
FFF0
ENDCHAR
STARTCHAR i
ENCODING 105
SWIDTH 307 0
DWIDTH 6 0
BBX 6 13 0 0
BITMAP
30
30
00
00
F0
30
30
30
30
30
30
30
FC
ENDCHAR
STARTCHAR j
ENCODING 106
SWIDTH 346 0
DWIDTH 6 0
BBX 5 16 0 -3
BITMAP
18
18
00
00
38
18
18
18
18
18
18
18
18
98
98
F0
ENDCHAR
STARTCHAR k
ENCODING 107
SWIDTH 599 0
DWIDTH 11 0
BBX 10 13 1 0
BITMAP
F000
3000
3000
3000
3180
3100
3200
3400
3C00
3600
3700
3380
F9C0
ENDCHAR
STARTCHAR l
ENCODING 108
SWIDTH 313 0
DWIDTH 6 0
BBX 6 13 0 0
BITMAP
F0
30
30
30
30
30
30
30
30
30
30
30
FC
ENDCHAR
STARTCHAR m
ENCODING 109
SWIDTH 946 0
DWIDTH 17 0
BBX 18 9 0 0
BITMAP
F79E00
38E300
30C300
30C300
30C300
30C300
30C300
30C300
FFFFC0
ENDCHAR
STARTCHAR n
ENCODING 110
SWIDTH 633 0
DWIDTH 11 0
BBX 12 9 0 0
BITMAP
F780
38C0
30C0
30C0
30C0
30C0
30C0
30C0
FFF0
ENDCHAR
STARTCHAR o
ENCODING 111
SWIDTH 602 0
DWIDTH 11 0
BBX 9 9 1 0
BITMAP
3E00
6300
C180
C180
C180
C180
C180
6300
3E00
ENDCHAR
STARTCHAR p
ENCODING 112
SWIDTH 642 0
DWIDTH 12 0
BBX 11 12 0 -3
BITMAP
F780
38C0
3060
3060
3060
3060
3060
38C0
3780
3000
3000
FC00
ENDCHAR
STARTCHAR q
ENCODING 113
SWIDTH 617 0
DWIDTH 11 0
BBX 11 12 1 -3
BITMAP
3D80
6380
C180
C180
C180
C180
C180
6380
3D80
0180
0180
07E0
ENDCHAR
STARTCHAR r
ENCODING 114
SWIDTH 440 0
DWIDTH 8 0
BBX 8 9 0 0
BITMAP
F7
39
31
30
30
30
30
30
FC
ENDCHAR
STARTCHAR s
ENCODING 115
SWIDTH 504 0
DWIDTH 9 0
BBX 7 9 1 0
BITMAP
7C
C4
C4
F0
7C
9E
86
C6
7C
ENDCHAR
STARTCHAR t
ENCODING 116
SWIDTH 392 0
DWIDTH 7 0
BBX 6 12 1 0
BITMAP
60
60
60
FC
60
60
60
60
60
60
60
3C
ENDCHAR
STARTCHAR u
ENCODING 117
SWIDTH 633 0
DWIDTH 11 0
BBX 12 9 0 0
BITMAP
F3C0
30C0
30C0
30C0
30C0
30C0
30C0
31C0
1EF0
ENDCHAR
STARTCHAR v
ENCODING 118
SWIDTH 545 0
DWIDTH 10 0
BBX 10 9 0 0
BITMAP
F1C0
6080
6080
3100
3100
1A00
1E00
0C00
0C00
ENDCHAR
STARTCHAR w
ENCODING 119
SWIDTH 795 0
DWIDTH 14 0
BBX 14 9 0 0
BITMAP
F11C
6308
6388
7398
35D0
34D0
38E0
1860
1060
ENDCHAR
STARTCHAR x
ENCODING 120
SWIDTH 557 0
DWIDTH 10 0
BBX 10 9 0 0
BITMAP
F1C0
7180
3300
1A00
0C00
1600
2700
4380
E3C0
ENDCHAR
STARTCHAR y
ENCODING 121
SWIDTH 551 0
DWIDTH 10 0
BBX 10 12 0 -3
BITMAP
F1C0
6080
7080
3100
3900
1A00
1E00
0C00
0C00
0800
1800
7000
ENDCHAR
STARTCHAR z
ENCODING 122
SWIDTH 595 0
DWIDTH 11 0
BBX 8 9 1 0
BITMAP
FF
86
8E
1C
18
30
71
E1
FF
ENDCHAR
STARTCHAR braceleft
ENCODING 123
SWIDTH 343 0
DWIDTH 6 0
BBX 5 16 0 -3
BITMAP
18
20
20
20
20
20
20
20
C0
20
20
20
20
20
20
18
ENDCHAR
STARTCHAR bar
ENCODING 124
SWIDTH 241 0
DWIDTH 4 0
BBX 1 16 2 -3
BITMAP
80
80
80
80
80
80
80
80
80
80
80
80
80
80
80
80
ENDCHAR
STARTCHAR braceright
ENCODING 125
SWIDTH 343 0
DWIDTH 6 0
BBX 5 16 1 -3
BITMAP
C0
20
20
20
20
20
20
20
18
20
20
20
20
20
20
C0
ENDCHAR
STARTCHAR asciitilde
ENCODING 126
SWIDTH 608 0
DWIDTH 11 0
BBX 11 4 0 3
BITMAP
7020
8C20
8620
81C0
ENDCHAR
STARTCHAR space
ENCODING 160
SWIDTH 333 0
DWIDTH 6 0
BBX 1 1 0 0
BITMAP
00
ENDCHAR
STARTCHAR exclamdown
ENCODING 161
SWIDTH 265 0
DWIDTH 5 0
BBX 2 12 1 -3
BITMAP
C0
C0
00
80
80
80
C0
C0
C0
C0
C0
C0
ENDCHAR
STARTCHAR cent
ENCODING 162
SWIDTH 608 0
DWIDTH 11 0
BBX 7 13 2 0
BITMAP
08
0E
3A
6A
C8
C8
C8
C8
C8
48
6A
3E
08
ENDCHAR
STARTCHAR sterling
ENCODING 163
SWIDTH 608 0
DWIDTH 11 0
BBX 8 13 2 0
BITMAP
0F
11
31
30
30
30
FC
30
30
30
20
40
FF
ENDCHAR
STARTCHAR currency
ENCODING 164
SWIDTH 608 0
DWIDTH 11 0
BBX 10 11 0 1
BITMAP
8040
5E80
6180
6180
4080
4080
4080
6180
3300
5E80
8040
ENDCHAR
STARTCHAR yen
ENCODING 165
SWIDTH 608 0
DWIDTH 11 0
BBX 12 13 0 0
BITMAP
F8F0
7060
38C0
1D80
0F00
3FC0
0600
0600
3FC0
0600
0600
0600
1F80
ENDCHAR
STARTCHAR brokenbar
ENCODING 166
SWIDTH 241 0
DWIDTH 4 0
BBX 1 16 2 -3
BITMAP
80
80
80
80
80
80
80
00
00
80
80
80
80
80
80
80
ENDCHAR
STARTCHAR section
ENCODING 167
SWIDTH 608 0
DWIDTH 11 0
BBX 8 16 1 -3
BITMAP
3E
E2
C2
C0
60
38
DE
C6
E2
7A
3C
0E
03
83
C7
7C
ENDCHAR
STARTCHAR dieresis
ENCODING 168
SWIDTH 602 0
DWIDTH 11 0
BBX 5 2 3 11
BITMAP
D8
D8
ENDCHAR
STARTCHAR copyright
ENCODING 169
SWIDTH 855 0
DWIDTH 15 0
BBX 15 13 0 0
BITMAP
0FE0
1830
600C
43C4
C442
8802
8802
8802
C442
43C4
600C
1830
0FE0
ENDCHAR
STARTCHAR ordfeminine
ENCODING 170
SWIDTH 428 0
DWIDTH 8 0
BBX 7 7 1 6
BITMAP
7C
4C
0C
7C
CC
CC
76
ENDCHAR
STARTCHAR guillemotleft
ENCODING 171
SWIDTH 530 0
DWIDTH 10 0
BBX 8 7 1 1
BITMAP
11
22
64
CC
64
22
11
ENDCHAR
STARTCHAR logicalnot
ENCODING 172
SWIDTH 608 0
DWIDTH 11 0
BBX 10 4 0 3
BITMAP
FFC0
0040
0040
0040
ENDCHAR
STARTCHAR hyphen
ENCODING 173
SWIDTH 325 0
DWIDTH 6 0
BBX 4 1 1 5
BITMAP
F0
ENDCHAR
STARTCHAR registered
ENCODING 174
SWIDTH 608 0
DWIDTH 11 0
BBX 7 8 2 5
BITMAP
38
44
FA
AA
AA
B2
6C
38
ENDCHAR
STARTCHAR macron
ENCODING 175
SWIDTH 602 0
DWIDTH 11 0
BBX 5 1 3 12
BITMAP
F8
ENDCHAR
STARTCHAR degree
ENCODING 176
SWIDTH 259 0
DWIDTH 5 0
BBX 3 3 1 10
BITMAP
E0
A0
E0
ENDCHAR
STARTCHAR plusminus
ENCODING 177
SWIDTH 608 0
DWIDTH 11 0
BBX 11 11 0 0
BITMAP
0400
0400
0400
0400
FFE0
0400
0400
0400
0000
0000
FFE0
ENDCHAR
STARTCHAR twosuperior
ENCODING 178
SWIDTH 365 0
DWIDTH 7 0
BBX 5 9 -10 4
BITMAP
70
88
88
08
10
20
40
80
F8
ENDCHAR
STARTCHAR threesuperior
ENCODING 179
SWIDTH 365 0
DWIDTH 7 0
BBX 5 9 -10 4
BITMAP
F0
88
08
08
70
08
08
88
F0
ENDCHAR
STARTCHAR acute
ENCODING 180
SWIDTH 602 0
DWIDTH 11 0
BBX 4 3 4 10
BITMAP
30
40
80
ENDCHAR
STARTCHAR mu
ENCODING 181
SWIDTH 626 0
DWIDTH 11 0
BBX 12 12 0 -3
BITMAP
F3C0
30C0
30C0
30C0
30C0
30C0
30C0
31C0
3EF0
3000
3000
3000
ENDCHAR
STARTCHAR paragraph
ENCODING 182
SWIDTH 608 0
DWIDTH 11 0
BBX 7 16 1 -3
BITMAP
7E
FA
FA
FA
FA
7A
1A
0A
0A
0A
0A
0A
0A
0A
0A
0A
ENDCHAR
STARTCHAR periodcentered
ENCODING 183
SWIDTH 608 0
DWIDTH 11 0
BBX 2 2 4 4
BITMAP
C0
C0
ENDCHAR
STARTCHAR cedilla
ENCODING 184
SWIDTH 602 0
DWIDTH 11 0
BBX 3 3 4 -3
BITMAP
C0
60
E0
ENDCHAR
STARTCHAR onesuperior
ENCODING 185
SWIDTH 365 0
DWIDTH 7 0
BBX 3 9 -11 4
BITMAP
C0
40
40
40
40
40
40
40
E0
ENDCHAR
STARTCHAR ordmasculine
ENCODING 186
SWIDTH 428 0
DWIDTH 8 0
BBX 7 7 0 6
BITMAP
38
6C
C6
C6
C6
6C
38
ENDCHAR
STARTCHAR guillemotright
ENCODING 187
SWIDTH 530 0
DWIDTH 10 0
BBX 8 7 1 1
BITMAP
88
44
26
33
26
44
88
ENDCHAR
STARTCHAR onequarter
ENCODING 188
SWIDTH 766 0
DWIDTH 14 0
BBX 12 13 3 0
BITMAP
C060
4040
4080
4100
4360
4260
44A0
4920
FB20
13F0
2020
4020
C070
ENDCHAR
STARTCHAR onehalf
ENCODING 189
SWIDTH 766 0
DWIDTH 14 0
BBX 11 13 3 0
BITMAP
C060
4040
4080
4100
43C0
4220
4620
4820
F840
1080
2100
4200
C3E0
ENDCHAR
STARTCHAR threequarters
ENCODING 190
SWIDTH 766 0
DWIDTH 14 0
BBX 13 13 4 0
BITMAP
F030
8820
0840
0880
71B0
0930
0A50
8C90
FD90
09F8
1010
2010
6038
ENDCHAR
STARTCHAR questiondown
ENCODING 191
SWIDTH 480 0
DWIDTH 9 0
BBX 7 13 1 -4
BITMAP
18
18
00
18
18
18
30
60
40
C0
C2
E2
3E
ENDCHAR
STARTCHAR Agrave
ENCODING 192
SWIDTH 744 0
DWIDTH 13 0
BBX 13 17 0 0
BITMAP
0C00
0200
0100
0000
0200
0600
0700
0700
0980
0980
11C0
10C0
3FC0
2060
2060
4030
E0F8
ENDCHAR
STARTCHAR Aacute
ENCODING 193
SWIDTH 744 0
DWIDTH 13 0
BBX 13 17 0 0
BITMAP
0180
0200
0400
0000
0200
0600
0700
0700
0980
0980
11C0
10C0
3FC0
2060
2060
4030
E0F8
ENDCHAR
STARTCHAR Acircumflex
ENCODING 194
SWIDTH 744 0
DWIDTH 13 0
BBX 13 17 0 0
BITMAP
0600
0900
1080
0000
0200
0600
0700
0700
0980
0980
11C0
10C0
3FC0
2060
2060
4030
E0F8
ENDCHAR
STARTCHAR Atilde
ENCODING 195
SWIDTH 744 0
DWIDTH 13 0
BBX 13 16 0 0
BITMAP
0640
0980
0000
0200
0600
0700
0700
0980
0980
11C0
10C0
3FC0
2060
2060
4030
E0F8
ENDCHAR
STARTCHAR Adieresis
ENCODING 196
SWIDTH 744 0
DWIDTH 13 0
BBX 13 16 0 0
BITMAP
0D80
0D80
0000
0200
0600
0700
0700
0980
0980
11C0
10C0
3FC0
2060
2060
4030
E0F8
ENDCHAR
STARTCHAR Aring
ENCODING 197
SWIDTH 744 0
DWIDTH 13 0
BBX 13 17 0 0
BITMAP
0700
0500
0700
0000
0200
0600
0700
0700
0980
0980
11C0
10C0
3FC0
2060
2060
4030
E0F8
ENDCHAR
STARTCHAR AE
ENCODING 198
SWIDTH 919 0
DWIDTH 17 0
BBX 16 13 0 0
BITMAP
00FF
01E1
0161
0360
0660
0462
087E
0860
1FE0
2060
2060
4061
E1FF
ENDCHAR
STARTCHAR Ccedilla
ENCODING 199
SWIDTH 695 0
DWIDTH 12 0
BBX 10 16 1 -3
BITMAP
1F80
30C0
6040
E040
C000
C000
C000
C000
C000
6000
6000
3040
1F80
0400
0600
0E00
ENDCHAR
STARTCHAR Egrave
ENCODING 200
SWIDTH 566 0
DWIDTH 10 0
BBX 10 17 0 0
BITMAP
1800
0400
0200
0000
FFC0
3040
3040
3000
3000
3100
3F00
3100
3000
3000
3040
3040
FFC0
ENDCHAR
STARTCHAR Eacute
ENCODING 201
SWIDTH 566 0
DWIDTH 10 0
BBX 10 17 0 0
BITMAP
0600
0800
1000
0000
FFC0
3040
3040
3000
3000
3100
3F00
3100
3000
3000
3040
3040
FFC0
ENDCHAR
STARTCHAR Ecircumflex
ENCODING 202
SWIDTH 566 0
DWIDTH 10 0
BBX 10 17 0 0
BITMAP
0C00
1200
2100
0000
FFC0
3040
3040
3000
3000
3100
3F00
3100
3000
3000
3040
3040
FFC0
ENDCHAR
STARTCHAR Edieresis
ENCODING 203
SWIDTH 566 0
DWIDTH 10 0
BBX 10 16 0 0
BITMAP
1B00
1B00
0000
FFC0
3040
3040
3000
3000
3100
3F00
3100
3000
3000
3040
3040
FFC0
ENDCHAR
STARTCHAR Igrave
ENCODING 204
SWIDTH 325 0
DWIDTH 6 0
BBX 6 17 0 0
BITMAP
60
10
08
00
FC
30
30
30
30
30
30
30
30
30
30
30
FC
ENDCHAR
STARTCHAR Iacute
ENCODING 205
SWIDTH 325 0
DWIDTH 6 0
BBX 6 17 0 0
BITMAP
18
20
40
00
FC
30
30
30
30
30
30
30
30
30
30
30
FC
ENDCHAR
STARTCHAR Icircumflex
ENCODING 206
SWIDTH 325 0
DWIDTH 6 0
BBX 6 17 0 0
BITMAP
30
48
84
00
FC
30
30
30
30
30
30
30
30
30
30
30
FC
ENDCHAR
STARTCHAR Idieresis
ENCODING 207
SWIDTH 325 0
DWIDTH 6 0
BBX 6 16 0 0
BITMAP
D8
D8
00
FC
30
30
30
30
30
30
30
30
30
30
30
FC
ENDCHAR
STARTCHAR Eth
ENCODING 208
SWIDTH 768 0
DWIDTH 14 0
BBX 13 13 0 0
BITMAP
FFC0
3060
3030
3018
3018
3018
FE18
3018
3018
3010
3030
3060
FF80
ENDCHAR
STARTCHAR Ntilde
ENCODING 209
SWIDTH 751 0
DWIDTH 14 0
BBX 14 16 0 0
BITMAP
0640
0980
0000
F07C
3010
3810
2C10
2E10
2710
2390
2190
20D0
20F0
2070
2030
F810
ENDCHAR
STARTCHAR Ograve
ENCODING 210
SWIDTH 777 0
DWIDTH 14 0
BBX 12 17 1 0
BITMAP
0C00
0200
0100
0000
1F80
30C0
6060
6060
C030
C030
C030
C030
C030
6060
6060
30C0
1F80
ENDCHAR
STARTCHAR Oacute
ENCODING 211
SWIDTH 777 0
DWIDTH 14 0
BBX 12 17 1 0
BITMAP
0300
0400
0800
0000
1F80
30C0
6060
6060
C030
C030
C030
C030
C030
6060
6060
30C0
1F80
ENDCHAR
STARTCHAR Ocircumflex
ENCODING 212
SWIDTH 777 0
DWIDTH 14 0
BBX 12 17 1 0
BITMAP
0600
0900
1080
0000
1F80
30C0
6060
6060
C030
C030
C030
C030
C030
6060
6060
30C0
1F80
ENDCHAR
STARTCHAR Otilde
ENCODING 213
SWIDTH 777 0
DWIDTH 14 0
BBX 12 16 1 0
BITMAP
0C80
1300
0000
1F80
30C0
6060
6060
C030
C030
C030
C030
C030
6060
6060
30C0
1F80
ENDCHAR
STARTCHAR Odieresis
ENCODING 214
SWIDTH 777 0
DWIDTH 14 0
BBX 12 16 1 0
BITMAP
1B00
1B00
0000
1F80
30C0
6060
6060
C030
C030
C030
C030
C030
6060
6060
30C0
1F80
ENDCHAR
STARTCHAR multiply
ENCODING 215
SWIDTH 608 0
DWIDTH 11 0
BBX 10 11 0 0
BITMAP
8040
4080
2100
3300
1E00
0C00
1E00
1200
2100
4080
8040
ENDCHAR
STARTCHAR Oslash
ENCODING 216
SWIDTH 777 0
DWIDTH 14 0
BBX 12 13 1 0
BITMAP
1F10
30E0
6060
60F0
C1B0
C330
C630
CC30
C830
F060
6060
70C0
CF80
ENDCHAR
STARTCHAR Ugrave
ENCODING 217
SWIDTH 719 0
DWIDTH 13 0
BBX 13 17 0 0
BITMAP
0C00
0200
0100
0000
FCF8
3020
3020
3020
3020
3020
3020
3020
3020
3020
3020
1840
0F80
ENDCHAR
STARTCHAR Uacute
ENCODING 218
SWIDTH 719 0
DWIDTH 13 0
BBX 13 17 0 0
BITMAP
0180
0200
0400
0000
FCF8
3020
3020
3020
3020
3020
3020
3020
3020
3020
3020
1840
0F80
ENDCHAR
STARTCHAR Ucircumflex
ENCODING 219
SWIDTH 719 0
DWIDTH 13 0
BBX 13 17 0 0
BITMAP
0300
0480
0840
0000
FCF8
3020
3020
3020
3020
3020
3020
3020
3020
3020
3020
1840
0F80
ENDCHAR
STARTCHAR Udieresis
ENCODING 220
SWIDTH 719 0
DWIDTH 13 0
BBX 13 16 0 0
BITMAP
0D80
0D80
0000
FCF8
3020
3020
3020
3020
3020
3020
3020
3020
3020
3020
1840
0F80
ENDCHAR
STARTCHAR Yacute
ENCODING 221
SWIDTH 678 0
DWIDTH 12 0
BBX 12 17 0 0
BITMAP
0300
0400
0800
0000
F870
7020
3040
38C0
1C80
0D00
0F00
0600
0600
0600
0600
0600
1F80
ENDCHAR
STARTCHAR Thorn
ENCODING 222
SWIDTH 573 0
DWIDTH 10 0
BBX 10 13 0 0
BITMAP
FC00
3000
3000
3F00
31C0
30C0
30C0
30C0
3180
3E00
3000
3000
FC00
ENDCHAR
STARTCHAR germandbls
ENCODING 223
SWIDTH 614 0
DWIDTH 11 0
BBX 9 14 1 0
BITMAP
1E00
3300
3300
3300
3200
3400
3600
3600
3300
3380
3180
3080
3480
F700
ENDCHAR
STARTCHAR agrave
ENCODING 224
SWIDTH 543 0
DWIDTH 10 0
BBX 8 13 1 0
BITMAP
30
08
04
00
7C
46
46
06
3E
E6
C6
C6
7B
ENDCHAR
STARTCHAR aacute
ENCODING 225
SWIDTH 543 0
DWIDTH 10 0
BBX 8 13 1 0
BITMAP
0C
10
20
00
7C
46
46
06
3E
E6
C6
C6
7B
ENDCHAR
STARTCHAR acircumflex
ENCODING 226
SWIDTH 543 0
DWIDTH 10 0
BBX 8 13 1 0
BITMAP
18
24
42
00
7C
46
46
06
3E
E6
C6
C6
7B
ENDCHAR
STARTCHAR atilde
ENCODING 227
SWIDTH 543 0
DWIDTH 10 0
BBX 8 12 1 0
BITMAP
32
4C
00
7C
46
46
06
3E
E6
C6
C6
7B
ENDCHAR
STARTCHAR adieresis
ENCODING 228
SWIDTH 543 0
DWIDTH 10 0
BBX 8 12 1 0
BITMAP
6C
6C
00
7C
46
46
06
3E
E6
C6
C6
7B
ENDCHAR
STARTCHAR aring
ENCODING 229
SWIDTH 543 0
DWIDTH 10 0
BBX 8 13 1 0
BITMAP
38
28
38
00
7C
46
46
06
3E
E6
C6
C6
7B
ENDCHAR
STARTCHAR ae
ENCODING 230
SWIDTH 819 0
DWIDTH 15 0
BBX 12 9 1 0
BITMAP
79C0
4720
4630
0630
3FF0
E600
C600
C710
79E0
ENDCHAR
STARTCHAR ccedilla
ENCODING 231
SWIDTH 509 0
DWIDTH 9 0
BBX 7 12 1 -3
BITMAP
3E
62
C2
C0
C0
C0
C0
60
3E
10
18
38
ENDCHAR
STARTCHAR egrave
ENCODING 232
SWIDTH 530 0
DWIDTH 10 0
BBX 8 13 1 0
BITMAP
30
08
04
00
3C
62
C3
C3
FF
C0
C0
61
3E
ENDCHAR
STARTCHAR eacute
ENCODING 233
SWIDTH 530 0
DWIDTH 10 0
BBX 8 13 1 0
BITMAP
0C
10
20
00
3C
62
C3
C3
FF
C0
C0
61
3E
ENDCHAR
STARTCHAR ecircumflex
ENCODING 234
SWIDTH 530 0
DWIDTH 10 0
BBX 8 13 1 0
BITMAP
18
24
42
00
3C
62
C3
C3
FF
C0
C0
61
3E
ENDCHAR
STARTCHAR edieresis
ENCODING 235
SWIDTH 530 0
DWIDTH 10 0
BBX 8 12 1 0
BITMAP
36
36
00
3C
62
C3
C3
FF
C0
C0
61
3E
ENDCHAR
STARTCHAR igrave
ENCODING 236
SWIDTH 307 0
DWIDTH 6 0
BBX 6 13 0 0
BITMAP
60
10
08
00
F0
30
30
30
30
30
30
30
FC
ENDCHAR
STARTCHAR iacute
ENCODING 237
SWIDTH 307 0
DWIDTH 6 0
BBX 6 13 0 0
BITMAP
18
20
40
00
F0
30
30
30
30
30
30
30
FC
ENDCHAR
STARTCHAR icircumflex
ENCODING 238
SWIDTH 307 0
DWIDTH 6 0
BBX 6 13 0 0
BITMAP
30
48
84
00
F0
30
30
30
30
30
30
30
FC
ENDCHAR
STARTCHAR idieresis
ENCODING 239
SWIDTH 307 0
DWIDTH 6 0
BBX 6 12 0 0
BITMAP
D8
D8
00
F0
30
30
30
30
30
30
30
FC
ENDCHAR
STARTCHAR eth
ENCODING 240
SWIDTH 596 0
DWIDTH 11 0
BBX 9 13 1 0
BITMAP
FC00
1800
3C00
4600
3F00
6300
C180
C180
C180
C180
C180
6300
3E00
ENDCHAR
STARTCHAR ntilde
ENCODING 241
SWIDTH 633 0
DWIDTH 11 0
BBX 12 12 0 0
BITMAP
0C80
1300
0000
F780
38C0
30C0
30C0
30C0
30C0
30C0
30C0
FFF0
ENDCHAR
STARTCHAR ograve
ENCODING 242
SWIDTH 602 0
DWIDTH 11 0
BBX 9 13 1 0
BITMAP
3000
0800
0400
0000
3E00
6300
C180
C180
C180
C180
C180
6300
3E00
ENDCHAR
STARTCHAR oacute
ENCODING 243
SWIDTH 602 0
DWIDTH 11 0
BBX 9 13 1 0
BITMAP
0600
0800
1000
0000
3E00
6300
C180
C180
C180
C180
C180
6300
3E00
ENDCHAR
STARTCHAR ocircumflex
ENCODING 244
SWIDTH 602 0
DWIDTH 11 0
BBX 9 13 1 0
BITMAP
1800
2400
4200
0000
3E00
6300
C180
C180
C180
C180
C180
6300
3E00
ENDCHAR
STARTCHAR otilde
ENCODING 245
SWIDTH 602 0
DWIDTH 11 0
BBX 9 12 1 0
BITMAP
3200
4C00
0000
3E00
6300
C180
C180
C180
C180
C180
6300
3E00
ENDCHAR
STARTCHAR odieresis
ENCODING 246
SWIDTH 602 0
DWIDTH 11 0
BBX 9 12 1 0
BITMAP
3600
3600
0000
3E00
6300
C180
C180
C180
C180
C180
6300
3E00
ENDCHAR
STARTCHAR divide
ENCODING 247
SWIDTH 608 0
DWIDTH 11 0
BBX 10 9 0 0
BITMAP
0C00
0C00
0000
0000
FFC0
0000
0000
0C00
0C00
ENDCHAR
STARTCHAR oslash
ENCODING 248
SWIDTH 602 0
DWIDTH 11 0
BBX 9 9 1 0
BITMAP
3C80
6300
C380
C580
C980
D180
E180
6300
DE00
ENDCHAR
STARTCHAR ugrave
ENCODING 249
SWIDTH 633 0
DWIDTH 11 0
BBX 12 13 0 0
BITMAP
0C00
0200
0100
0000
F3C0
30C0
30C0
30C0
30C0
30C0
30C0
31C0
1EF0
ENDCHAR
STARTCHAR uacute
ENCODING 250
SWIDTH 633 0
DWIDTH 11 0
BBX 12 13 0 0
BITMAP
0300
0400
0800
0000
F3C0
30C0
30C0
30C0
30C0
30C0
30C0
31C0
1EF0
ENDCHAR
STARTCHAR ucircumflex
ENCODING 251
SWIDTH 633 0
DWIDTH 11 0
BBX 12 13 0 0
BITMAP
0600
0900
1080
0000
F3C0
30C0
30C0
30C0
30C0
30C0
30C0
31C0
1EF0
ENDCHAR
STARTCHAR udieresis
ENCODING 252
SWIDTH 633 0
DWIDTH 11 0
BBX 12 12 0 0
BITMAP
0D80
0D80
0000
F3C0
30C0
30C0
30C0
30C0
30C0
30C0
31C0
1EF0
ENDCHAR
STARTCHAR yacute
ENCODING 253
SWIDTH 551 0
DWIDTH 10 0
BBX 10 16 0 -3
BITMAP
0600
0800
1000
0000
F1C0
6080
7080
3100
3900
1A00
1E00
0C00
0C00
0800
1800
7000
ENDCHAR
STARTCHAR thorn
ENCODING 254
SWIDTH 642 0
DWIDTH 12 0
BBX 11 16 0 -3
BITMAP
F000
3000
3000
3000
3780
38C0
3060
3060
3060
3060
3060
38C0
3780
3000
3000
FC00
ENDCHAR
STARTCHAR ydieresis
ENCODING 255
SWIDTH 551 0
DWIDTH 10 0
BBX 10 15 0 -3
BITMAP
3600
3600
0000
F1C0
6080
7080
3100
3900
1A00
1E00
0C00
0C00
0800
1800
7000
ENDCHAR
STARTCHAR Amacron
ENCODING 256
SWIDTH 744 0
DWIDTH 13 0
BBX 13 15 0 0
BITMAP
0F80
0000
0200
0600
0700
0700
0980
0980
11C0
10C0
3FC0
2060
2060
4030
E0F8
ENDCHAR
STARTCHAR amacron
ENCODING 257
SWIDTH 543 0
DWIDTH 10 0
BBX 8 11 1 0
BITMAP
3E
00
7C
46
46
06
3E
E6
C6
C6
7B
ENDCHAR
STARTCHAR Abreve
ENCODING 258
SWIDTH 744 0
DWIDTH 13 0
BBX 13 17 0 0
BITMAP
1080
0F00
0F00
0000
0200
0600
0700
0700
0980
0980
11C0
10C0
3FC0
2060
2060
4030
E0F8
ENDCHAR
STARTCHAR abreve
ENCODING 259
SWIDTH 543 0
DWIDTH 10 0
BBX 8 13 1 0
BITMAP
42
3C
3C
00
7C
46
46
06
3E
E6
C6
C6
7B
ENDCHAR
STARTCHAR Aogonek
ENCODING 260
SWIDTH 744 0
DWIDTH 13 0
BBX 13 16 0 -3
BITMAP
0200
0600
0700
0700
0980
0980
11C0
10C0
3FC0
2060
2060
4030
E0F8
0100
0200
0380
ENDCHAR
STARTCHAR aogonek
ENCODING 261
SWIDTH 543 0
DWIDTH 10 0
BBX 8 12 1 -3
BITMAP
7C
46
46
06
3E
E6
C6
C6
7B
10
20
38
ENDCHAR
STARTCHAR Cacute
ENCODING 262
SWIDTH 695 0
DWIDTH 12 0
BBX 10 17 1 0
BITMAP
0300
0400
0800
0000
1F80
30C0
6040
E040
C000
C000
C000
C000
C000
6000
6000
3040
1F80
ENDCHAR
STARTCHAR cacute
ENCODING 263
SWIDTH 509 0
DWIDTH 9 0
BBX 7 13 1 0
BITMAP
06
08
10
00
3E
62
C2
C0
C0
C0
C0
60
3E
ENDCHAR
STARTCHAR Ccircumflex
ENCODING 264
SWIDTH 695 0
DWIDTH 12 0
BBX 10 17 1 0
BITMAP
0C00
1200
2100
0000
1F80
30C0
6040
E040
C000
C000
C000
C000
C000
6000
6000
3040
1F80
ENDCHAR
STARTCHAR ccircumflex
ENCODING 265
SWIDTH 509 0
DWIDTH 9 0
BBX 7 13 1 0
BITMAP
18
24
42
00
3E
62
C2
C0
C0
C0
C0
60
3E
ENDCHAR
STARTCHAR Cdotaccent
ENCODING 266
SWIDTH 695 0
DWIDTH 12 0
BBX 10 16 1 0
BITMAP
0C00
0C00
0000
1F80
30C0
6040
E040
C000
C000
C000
C000
C000
6000
6000
3040
1F80
ENDCHAR
STARTCHAR cdotaccent
ENCODING 267
SWIDTH 509 0
DWIDTH 9 0
BBX 7 12 1 0
BITMAP
18
18
00
3E
62
C2
C0
C0
C0
C0
60
3E
ENDCHAR
STARTCHAR Ccaron
ENCODING 268
SWIDTH 695 0
DWIDTH 12 0
BBX 10 17 1 0
BITMAP
2100
1200
0C00
0000
1F80
30C0
6040
E040
C000
C000
C000
C000
C000
6000
6000
3040
1F80
ENDCHAR
STARTCHAR ccaron
ENCODING 269
SWIDTH 509 0
DWIDTH 9 0
BBX 7 13 1 0
BITMAP
42
24
18
00
3E
62
C2
C0
C0
C0
C0
60
3E
ENDCHAR
STARTCHAR Dcaron
ENCODING 270
SWIDTH 768 0
DWIDTH 14 0
BBX 13 17 0 0
BITMAP
1080
0900
0600
0000
FF80
3060
3030
3018
3018
3018
3018
3018
3018
3010
3030
3060
FF80
ENDCHAR
STARTCHAR dcaron
ENCODING 271
SWIDTH 875 0
DWIDTH 16 0
BBX 13 13 1 0
BITMAP
0798
0198
0188
0188
3D90
6380
C180
C180
C180
C180
C180
6380
3DE0
ENDCHAR
STARTCHAR Dcroat
ENCODING 272
SWIDTH 768 0
DWIDTH 14 0
BBX 13 13 0 0
BITMAP
FFC0
3060
3030
3018
3018
3018
FE18
3018
3018
3010
3030
3060
FF80
ENDCHAR
STARTCHAR dcroat
ENCODING 273
SWIDTH 642 0
DWIDTH 12 0
BBX 11 13 1 0
BITMAP
0780
0180
07E0
0180
3D80
6380
C180
C180
C180
C180
C180
6380
3DE0
ENDCHAR
STARTCHAR Emacron
ENCODING 274
SWIDTH 566 0
DWIDTH 10 0
BBX 10 15 0 0
BITMAP
3E00
0000
FFC0
3040
3040
3000
3000
3100
3F00
3100
3000
3000
3040
3040
FFC0
ENDCHAR
STARTCHAR emacron
ENCODING 275
SWIDTH 530 0
DWIDTH 10 0
BBX 8 11 1 0
BITMAP
7C
00
3C
62
C3
C3
FF
C0
C0
61
3E
ENDCHAR
STARTCHAR Ebreve
ENCODING 276
SWIDTH 566 0
DWIDTH 10 0
BBX 10 17 0 0
BITMAP
2100
1E00
1E00
0000
FFC0
3040
3040
3000
3000
3100
3F00
3100
3000
3000
3040
3040
FFC0
ENDCHAR
STARTCHAR ebreve
ENCODING 277
SWIDTH 530 0
DWIDTH 10 0
BBX 8 13 1 0
BITMAP
42
3C
3C
00
3C
62
C3
C3
FF
C0
C0
61
3E
ENDCHAR
STARTCHAR Edotaccent
ENCODING 278
SWIDTH 566 0
DWIDTH 10 0
BBX 10 16 0 0
BITMAP
0C00
0C00
0000
FFC0
3040
3040
3000
3000
3100
3F00
3100
3000
3000
3040
3040
FFC0
ENDCHAR
STARTCHAR edotaccent
ENCODING 279
SWIDTH 530 0
DWIDTH 10 0
BBX 8 12 1 0
BITMAP
18
18
00
3C
62
C3
C3
FF
C0
C0
61
3E
ENDCHAR
STARTCHAR Eogonek
ENCODING 280
SWIDTH 566 0
DWIDTH 10 0
BBX 10 16 0 -3
BITMAP
FFC0
3040
3040
3000
3000
3100
3F00
3100
3000
3000
3040
3040
FFC0
0800
1000
1C00
ENDCHAR
STARTCHAR eogonek
ENCODING 281
SWIDTH 530 0
DWIDTH 10 0
BBX 8 12 1 -3
BITMAP
3C
62
C3
C3
FF
C0
C0
61
3E
10
20
38
ENDCHAR
STARTCHAR Ecaron
ENCODING 282
SWIDTH 566 0
DWIDTH 10 0
BBX 10 17 0 0
BITMAP
2100
1200
0C00
0000
FFC0
3040
3040
3000
3000
3100
3F00
3100
3000
3000
3040
3040
FFC0
ENDCHAR
STARTCHAR ecaron
ENCODING 283
SWIDTH 530 0
DWIDTH 10 0
BBX 8 13 1 0
BITMAP
42
24
18
00
3C
62
C3
C3
FF
C0
C0
61
3E
ENDCHAR
STARTCHAR Gcircumflex
ENCODING 284
SWIDTH 732 0
DWIDTH 13 0
BBX 13 17 1 0
BITMAP
0600
0900
1080
0000
0FC0
3860
6020
6000
C000
C000
C000
C1F8
C060
6060
6060
3860
0FC0
ENDCHAR
STARTCHAR gcircumflex
ENCODING 285
SWIDTH 571 0
DWIDTH 10 0
BBX 10 16 0 -3
BITMAP
0C00
1200
2100
0000
3FC0
7600
6300
6300
2300
1700
7E00
6000
3F80
C180
C180
7E00
ENDCHAR
STARTCHAR Gbreve
ENCODING 286
SWIDTH 732 0
DWIDTH 13 0
BBX 13 17 1 0
BITMAP
1080
0F00
0F00
0000
0FC0
3860
6020
6000
C000
C000
C000
C1F8
C060
6060
6060
3860
0FC0
ENDCHAR
STARTCHAR gbreve
ENCODING 287
SWIDTH 571 0
DWIDTH 10 0
BBX 10 16 0 -3
BITMAP
2100
1E00
1E00
0000
3FC0
7600
6300
6300
2300
1700
7E00
6000
3F80
C180
C180
7E00
ENDCHAR
STARTCHAR Gdotaccent
ENCODING 288
SWIDTH 732 0
DWIDTH 13 0
BBX 13 16 1 0
BITMAP
0600
0600
0000
0FC0
3860
6020
6000
C000
C000
C000
C1F8
C060
6060
6060
3860
0FC0
ENDCHAR
STARTCHAR gdotaccent
ENCODING 289
SWIDTH 571 0
DWIDTH 10 0
BBX 10 15 0 -3
BITMAP
0C00
0C00
0000
3FC0
7600
6300
6300
2300
1700
7E00
6000
3F80
C180
C180
7E00
ENDCHAR
STARTCHAR Gcommaaccent
ENCODING 290
SWIDTH 732 0
DWIDTH 13 0
BBX 13 19 1 -6
BITMAP
0FC0
3860
6020
6000
C000
C000
C000
C1F8
C060
6060
6060
3860
0FC0
0000
0600
0600
0200
0200
0400
ENDCHAR
STARTCHAR gcommaaccent
ENCODING 291
SWIDTH 571 0
DWIDTH 10 0
BBX 10 18 0 -3
BITMAP
0400
0800
0800
0C00
0C00
0000
3FC0
7600
6300
6300
2300
1700
7E00
6000
3F80
C180
C180
7E00
ENDCHAR
STARTCHAR Hcircumflex
ENCODING 292
SWIDTH 771 0
DWIDTH 14 0
BBX 14 17 0 0
BITMAP
0300
0480
0840
0000
FCFC
3030
3030
3030
3030
3030
3FF0
3030
3030
3030
3030
3030
FCFC
ENDCHAR
STARTCHAR hcircumflex
ENCODING 293
SWIDTH 633 0
DWIDTH 11 0
BBX 12 17 0 0
BITMAP
1800
2400
4200
0000
F000
3000
3000
3000
3780
38C0
30C0
30C0
30C0
30C0
30C0
30C0
FFF0
ENDCHAR
STARTCHAR Hbar
ENCODING 294
SWIDTH 771 0
DWIDTH 14 0
BBX 14 13 0 0
BITMAP
FCFC
3030
3030
FFFC
3030
3030
3FF0
3030
3030
3030
3030
3030
FCFC
ENDCHAR
STARTCHAR hbar
ENCODING 295
SWIDTH 633 0
DWIDTH 11 0
BBX 12 13 0 0
BITMAP
F000
3000
FC00
3000
3780
38C0
30C0
30C0
30C0
30C0
30C0
30C0
FFF0
ENDCHAR
STARTCHAR Itilde
ENCODING 296
SWIDTH 325 0
DWIDTH 6 0
BBX 6 16 0 0
BITMAP
64
98
00
FC
30
30
30
30
30
30
30
30
30
30
30
FC
ENDCHAR
STARTCHAR itilde
ENCODING 297
SWIDTH 307 0
DWIDTH 6 0
BBX 6 12 0 0
BITMAP
64
98
00
F0
30
30
30
30
30
30
30
FC
ENDCHAR
STARTCHAR Imacron
ENCODING 298
SWIDTH 325 0
DWIDTH 6 0
BBX 6 15 0 0
BITMAP
7C
00
FC
30
30
30
30
30
30
30
30
30
30
30
FC
ENDCHAR
STARTCHAR imacron
ENCODING 299
SWIDTH 307 0
DWIDTH 6 0
BBX 6 11 0 0
BITMAP
F8
00
F0
30
30
30
30
30
30
30
FC
ENDCHAR
STARTCHAR Ibreve
ENCODING 300
SWIDTH 325 0
DWIDTH 6 0
BBX 6 17 0 0
BITMAP
84
78
78
00
FC
30
30
30
30
30
30
30
30
30
30
30
FC
ENDCHAR
STARTCHAR ibreve
ENCODING 301
SWIDTH 307 0
DWIDTH 6 0
BBX 6 13 0 0
BITMAP
84
78
78
00
F0
30
30
30
30
30
30
30
FC
ENDCHAR
STARTCHAR Iogonek
ENCODING 302
SWIDTH 325 0
DWIDTH 6 0
BBX 6 16 0 -3
BITMAP
FC
30
30
30
30
30
30
30
30
30
30
30
FC
10
20
38
ENDCHAR
STARTCHAR iogonek
ENCODING 303
SWIDTH 307 0
DWIDTH 6 0
BBX 6 16 0 -3
BITMAP
30
30
00
00
F0
30
30
30
30
30
30
30
FC
10
20
38
ENDCHAR
STARTCHAR Idotaccent
ENCODING 304
SWIDTH 325 0
DWIDTH 6 0
BBX 6 16 0 0
BITMAP
30
30
00
FC
30
30
30
30
30
30
30
30
30
30
30
FC
ENDCHAR
STARTCHAR dotlessi
ENCODING 305
SWIDTH 307 0
DWIDTH 6 0
BBX 6 9 0 0
BITMAP
F0
30
30
30
30
30
30
30
FC
ENDCHAR
STARTCHAR IJ
ENCODING 306
SWIDTH 731 0
DWIDTH 14 0
BBX 14 16 0 -3
BITMAP
FCFC
3030
3030
3030
3030
3030
3030
3030
3030
3030
3030
3030
FC30
0230
0260
03C0
ENDCHAR
STARTCHAR ij
ENCODING 307
SWIDTH 638 0
DWIDTH 12 0
BBX 11 16 0 -3
BITMAP
3060
3060
0000
0000
F0E0
3060
3060
3060
3060
3060
3060
3060
FC60
0260
0260
03C0
ENDCHAR
STARTCHAR Jcircumflex
ENCODING 308
SWIDTH 422 0
DWIDTH 8 0
BBX 8 20 0 -3
BITMAP
0C
12
21
00
3F
0C
0C
0C
0C
0C
0C
0C
0C
0C
0C
0C
0C
8C
98
F0
ENDCHAR
STARTCHAR jcircumflex
ENCODING 309
SWIDTH 346 0
DWIDTH 6 0
BBX 6 16 0 -3
BITMAP
30
48
84
00
38
18
18
18
18
18
18
18
18
98
98
F0
ENDCHAR
STARTCHAR Kcommaaccent
ENCODING 310
SWIDTH 708 0
DWIDTH 13 0
BBX 12 19 1 -6
BITMAP
FCE0
30C0
3180
3300
3600
3400
3C00
3600
3700
3380
31C0
30E0
F9F0
0000
0600
0600
0200
0200
0400
ENDCHAR
STARTCHAR kcommaaccent
ENCODING 311
SWIDTH 599 0
DWIDTH 11 0
BBX 10 19 1 -6
BITMAP
F000
3000
3000
3000
3180
3100
3200
3400
3C00
3600
3700
3380
F9C0
0000
0C00
0C00
0400
0400
0800
ENDCHAR
STARTCHAR kgreenlandic
ENCODING 312
SWIDTH 599 0
DWIDTH 11 0
BBX 10 9 1 0
BITMAP
3180
3100
3200
3400
3C00
3600
3700
3380
F9C0
ENDCHAR
STARTCHAR Lacute
ENCODING 313
SWIDTH 557 0
DWIDTH 10 0
BBX 10 17 0 0
BITMAP
0600
0800
1000
0000
FC00
3000
3000
3000
3000
3000
3000
3000
3000
3000
3040
3040
FFC0
ENDCHAR
STARTCHAR lacute
ENCODING 314
SWIDTH 313 0
DWIDTH 6 0
BBX 6 17 0 0
BITMAP
0C
10
20
00
F0
30
30
30
30
30
30
30
30
30
30
30
FC
ENDCHAR
STARTCHAR Lcommaaccent
ENCODING 315
SWIDTH 557 0
DWIDTH 10 0
BBX 10 19 0 -6
BITMAP
FC00
3000
3000
3000
3000
3000
3000
3000
3000
3000
3040
3040
FFC0
0000
0C00
0C00
0400
0400
0800
ENDCHAR
STARTCHAR lcommaaccent
ENCODING 316
SWIDTH 313 0
DWIDTH 6 0
BBX 6 19 0 -6
BITMAP
F0
30
30
30
30
30
30
30
30
30
30
30
FC
00
30
30
10
10
20
ENDCHAR
STARTCHAR Lcaron
ENCODING 317
SWIDTH 794 0
DWIDTH 15 0
BBX 13 13 0 0
BITMAP
FC18
3018
3008
3008
3010
3000
3000
3000
3000
3000
3040
3040
FFC0
ENDCHAR
STARTCHAR lcaron
ENCODING 318
SWIDTH 562 0
DWIDTH 11 0
BBX 9 13 0 0
BITMAP
F180
3180
3080
3080
3100
3000
3000
3000
3000
3000
3000
3000
FC00
ENDCHAR
STARTCHAR Ldot
ENCODING 319
SWIDTH 1137 0
DWIDTH 21 0
BBX 16 13 0 0
BITMAP
FC00
3000
3000
3000
3000
3000
3000
3003
3003
3000
3040
3040
FFC0
ENDCHAR
STARTCHAR ldot
ENCODING 320
SWIDTH 905 0
DWIDTH 17 0
BBX 12 13 0 0
BITMAP
F000
3000
3000
3000
3000
3000
3000
3030
3030
3000
3000
3000
FC00
ENDCHAR
STARTCHAR Lslash
ENCODING 321
SWIDTH 557 0
DWIDTH 10 0
BBX 10 13 0 0
BITMAP
FC00
3000
3000
3000
3400
3C00
3000
F000
3000
3000
3040
3040
FFC0
ENDCHAR
STARTCHAR lslash
ENCODING 322
SWIDTH 313 0
DWIDTH 6 0
BBX 6 13 0 0
BITMAP
F0
30
30
30
30
3C
70
F0
30
30
30
30
FC
ENDCHAR
STARTCHAR Nacute
ENCODING 323
SWIDTH 751 0
DWIDTH 14 0
BBX 14 17 0 0
BITMAP
00C0
0100
0200
0000
F07C
3010
3810
2C10
2E10
2710
2390
2190
20D0
20F0
2070
2030
F810
ENDCHAR
STARTCHAR nacute
ENCODING 324
SWIDTH 633 0
DWIDTH 11 0
BBX 12 13 0 0
BITMAP
0300
0400
0800
0000
F780
38C0
30C0
30C0
30C0
30C0
30C0
30C0
FFF0
ENDCHAR
STARTCHAR Ncommaaccent
ENCODING 325
SWIDTH 751 0
DWIDTH 14 0
BBX 14 19 0 -6
BITMAP
F07C
3010
3810
2C10
2E10
2710
2390
2190
20D0
20F0
2070
2030
F810
0000
0300
0300
0100
0100
0200
ENDCHAR
STARTCHAR ncommaaccent
ENCODING 326
SWIDTH 633 0
DWIDTH 11 0
BBX 12 15 0 -6
BITMAP
F780
38C0
30C0
30C0
30C0
30C0
30C0
30C0
FFF0
0000
0600
0600
0200
0200
0400
ENDCHAR
STARTCHAR Ncaron
ENCODING 327
SWIDTH 751 0
DWIDTH 14 0
BBX 14 17 0 0
BITMAP
0840
0480
0300
0000
F07C
3010
3810
2C10
2E10
2710
2390
2190
20D0
20F0
2070
2030
F810
ENDCHAR
STARTCHAR ncaron
ENCODING 328
SWIDTH 633 0
DWIDTH 11 0
BBX 12 13 0 0
BITMAP
2100
1200
0C00
0000
F780
38C0
30C0
30C0
30C0
30C0
30C0
30C0
FFF0
ENDCHAR
STARTCHAR napostrophe
ENCODING 329
SWIDTH 885 0
DWIDTH 16 0
BBX 16 13 1 0
BITMAP
C000
C000
4000
4000
8F78
038C
030C
030C
030C
030C
030C
030C
0FFF
ENDCHAR
STARTCHAR Eng
ENCODING 330
SWIDTH 751 0
DWIDTH 14 0
BBX 14 16 0 -3
BITMAP
F07C
3010
3810
2C10
2E10
2710
2390
2190
20D0
20F0
2070
2030
F830
0130
0130
01E0
ENDCHAR
STARTCHAR eng
ENCODING 331
SWIDTH 633 0
DWIDTH 11 0
BBX 10 12 0 -3
BITMAP
F780
38C0
30C0
30C0
30C0
30C0
30C0
30C0
FCC0
04C0
04C0
0780
ENDCHAR
STARTCHAR Omacron
ENCODING 332
SWIDTH 777 0
DWIDTH 14 0
BBX 12 15 1 0
BITMAP
0F80
0000
1F80
30C0
6060
6060
C030
C030
C030
C030
C030
6060
6060
30C0
1F80
ENDCHAR
STARTCHAR omacron
ENCODING 333
SWIDTH 602 0
DWIDTH 11 0
BBX 9 11 1 0
BITMAP
3E00
0000
3E00
6300
C180
C180
C180
C180
C180
6300
3E00
ENDCHAR
STARTCHAR Obreve
ENCODING 334
SWIDTH 777 0
DWIDTH 14 0
BBX 12 17 1 0
BITMAP
1080
0F00
0F00
0000
1F80
30C0
6060
6060
C030
C030
C030
C030
C030
6060
6060
30C0
1F80
ENDCHAR
STARTCHAR obreve
ENCODING 335
SWIDTH 602 0
DWIDTH 11 0
BBX 9 13 1 0
BITMAP
2100
1E00
1E00
0000
3E00
6300
C180
C180
C180
C180
C180
6300
3E00
ENDCHAR
STARTCHAR Ohungarumlaut
ENCODING 336
SWIDTH 777 0
DWIDTH 14 0
BBX 12 17 1 0
BITMAP
0380
0500
0A00
0000
1F80
30C0
6060
6060
C030
C030
C030
C030
C030
6060
6060
30C0
1F80
ENDCHAR
STARTCHAR ohungarumlaut
ENCODING 337
SWIDTH 602 0
DWIDTH 11 0
BBX 9 13 1 0
BITMAP
0700
0A00
1400
0000
3E00
6300
C180
C180
C180
C180
C180
6300
3E00
ENDCHAR
STARTCHAR OE
ENCODING 338
SWIDTH 1014 0
DWIDTH 18 0
BBX 16 13 1 0
BITMAP
1F7F
30E1
6061
6060
C060
C062
C07E
C062
C060
6060
6061
30E1
1F7F
ENDCHAR
STARTCHAR oe
ENCODING 339
SWIDTH 908 0
DWIDTH 16 0
BBX 15 9 1 0
BITMAP
3C78
63C4
C186
C186
C1FE
C180
C180
63C2
3C7C
ENDCHAR
STARTCHAR Racute
ENCODING 340
SWIDTH 679 0
DWIDTH 12 0
BBX 12 17 0 0
BITMAP
0300
0400
0800
0000
FF00
3180
30C0
30C0
30C0
3180
3F00
3300
3300
3180
31C0
30E0
F870
ENDCHAR
STARTCHAR racute
ENCODING 341
SWIDTH 440 0
DWIDTH 8 0
BBX 8 13 0 0
BITMAP
06
08
10
00
F7
39
31
30
30
30
30
30
FC
ENDCHAR
STARTCHAR Rcommaaccent
ENCODING 342
SWIDTH 679 0
DWIDTH 12 0
BBX 12 19 0 -6
BITMAP
FF00
3180
30C0
30C0
30C0
3180
3F00
3300
3300
3180
31C0
30E0
F870
0000
0600
0600
0200
0200
0400
ENDCHAR
STARTCHAR rcommaaccent
ENCODING 343
SWIDTH 440 0
DWIDTH 8 0
BBX 8 15 0 -6
BITMAP
F7
39
31
30
30
30
30
30
FC
00
30
30
10
10
20
ENDCHAR
STARTCHAR Rcaron
ENCODING 344
SWIDTH 679 0
DWIDTH 12 0
BBX 12 17 0 0
BITMAP
2100
1200
0C00
0000
FF00
3180
30C0
30C0
30C0
3180
3F00
3300
3300
3180
31C0
30E0
F870
ENDCHAR
STARTCHAR rcaron
ENCODING 345
SWIDTH 440 0
DWIDTH 8 0
BBX 8 13 0 0
BITMAP
42
24
18
00
F7
39
31
30
30
30
30
30
FC
ENDCHAR
STARTCHAR Sacute
ENCODING 346
SWIDTH 542 0
DWIDTH 10 0
BBX 8 17 1 0
BITMAP
06
08
10
00
3E
62
C2
C0
E0
78
3C
0E
03
03
83
86
FC
ENDCHAR
STARTCHAR sacute
ENCODING 347
SWIDTH 504 0
DWIDTH 9 0
BBX 7 13 1 0
BITMAP
0C
10
20
00
7C
C4
C4
F0
7C
9E
86
C6
7C
ENDCHAR
STARTCHAR Scircumflex
ENCODING 348
SWIDTH 542 0
DWIDTH 10 0
BBX 8 17 1 0
BITMAP
18
24
42
00
3E
62
C2
C0
E0
78
3C
0E
03
03
83
86
FC
ENDCHAR
STARTCHAR scircumflex
ENCODING 349
SWIDTH 504 0
DWIDTH 9 0
BBX 7 13 1 0
BITMAP
30
48
84
00
7C
C4
C4
F0
7C
9E
86
C6
7C
ENDCHAR
STARTCHAR Scedilla
ENCODING 350
SWIDTH 542 0
DWIDTH 10 0
BBX 8 16 1 -3
BITMAP
3E
62
C2
C0
E0
78
3C
0E
03
03
83
86
FC
18
0C
1C
ENDCHAR
STARTCHAR scedilla
ENCODING 351
SWIDTH 504 0
DWIDTH 9 0
BBX 7 12 1 -3
BITMAP
7C
C4
C4
F0
7C
9E
86
C6
7C
30
18
38
ENDCHAR
STARTCHAR Scaron
ENCODING 352
SWIDTH 542 0
DWIDTH 10 0
BBX 8 17 1 0
BITMAP
42
24
18
00
3E
62
C2
C0
E0
78
3C
0E
03
03
83
86
FC
ENDCHAR
STARTCHAR scaron
ENCODING 353
SWIDTH 504 0
DWIDTH 9 0
BBX 7 13 1 0
BITMAP
84
48
30
00
7C
C4
C4
F0
7C
9E
86
C6
7C
ENDCHAR
STARTCHAR Tcommaaccent
ENCODING 354
SWIDTH 663 0
DWIDTH 12 0
BBX 12 16 0 -3
BITMAP
FFF0
8610
0600
0600
0600
0600
0600
0600
0600
0600
0600
0600
1F80
0600
0300
0700
ENDCHAR
STARTCHAR tcommaaccent
ENCODING 355
SWIDTH 392 0
DWIDTH 7 0
BBX 6 15 1 -3
BITMAP
60
60
60
FC
60
60
60
60
60
60
60
3C
30
18
38
ENDCHAR
STARTCHAR Tcaron
ENCODING 356
SWIDTH 663 0
DWIDTH 12 0
BBX 12 17 0 0
BITMAP
1080
0900
0600
0000
FFF0
8610
0600
0600
0600
0600
0600
0600
0600
0600
0600
0600
1F80
ENDCHAR
STARTCHAR tcaron
ENCODING 357
SWIDTH 637 0
DWIDTH 12 0
BBX 9 13 1 0
BITMAP
0180
6180
6080
6080
FD00
6000
6000
6000
6000
6000
6000
6000
3C00
ENDCHAR
STARTCHAR Tbar
ENCODING 358
SWIDTH 663 0
DWIDTH 12 0
BBX 12 13 0 0
BITMAP
FFF0
8610
0600
0600
0600
0600
1F80
0600
0600
0600
0600
0600
1F80
ENDCHAR
STARTCHAR tbar
ENCODING 359
SWIDTH 392 0
DWIDTH 7 0
BBX 6 12 1 0
BITMAP
60
60
60
FC
60
60
60
FC
60
60
60
3C
ENDCHAR
STARTCHAR Utilde
ENCODING 360
SWIDTH 719 0
DWIDTH 13 0
BBX 13 16 0 0
BITMAP
0C80
1300
0000
FCF8
3020
3020
3020
3020
3020
3020
3020
3020
3020
3020
1840
0F80
ENDCHAR
STARTCHAR utilde
ENCODING 361
SWIDTH 633 0
DWIDTH 11 0
BBX 12 12 0 0
BITMAP
0C80
1300
0000
F3C0
30C0
30C0
30C0
30C0
30C0
30C0
31C0
1EF0
ENDCHAR
STARTCHAR Umacron
ENCODING 362
SWIDTH 719 0
DWIDTH 13 0
BBX 13 15 0 0
BITMAP
0F80
0000
FCF8
3020
3020
3020
3020
3020
3020
3020
3020
3020
3020
1840
0F80
ENDCHAR
STARTCHAR umacron
ENCODING 363
SWIDTH 633 0
DWIDTH 11 0
BBX 12 11 0 0
BITMAP
1F00
0000
F3C0
30C0
30C0
30C0
30C0
30C0
30C0
31C0
1EF0
ENDCHAR
STARTCHAR Ubreve
ENCODING 364
SWIDTH 719 0
DWIDTH 13 0
BBX 13 17 0 0
BITMAP
1080
0F00
0F00
0000
FCF8
3020
3020
3020
3020
3020
3020
3020
3020
3020
3020
1840
0F80
ENDCHAR
STARTCHAR ubreve
ENCODING 365
SWIDTH 633 0
DWIDTH 11 0
BBX 12 13 0 0
BITMAP
1080
0F00
0F00
0000
F3C0
30C0
30C0
30C0
30C0
30C0
30C0
31C0
1EF0
ENDCHAR
STARTCHAR Uring
ENCODING 366
SWIDTH 719 0
DWIDTH 13 0
BBX 13 17 0 0
BITMAP
0700
0500
0700
0000
FCF8
3020
3020
3020
3020
3020
3020
3020
3020
3020
3020
1840
0F80
ENDCHAR
STARTCHAR uring
ENCODING 367
SWIDTH 633 0
DWIDTH 11 0
BBX 12 13 0 0
BITMAP
0E00
0A00
0E00
0000
F3C0
30C0
30C0
30C0
30C0
30C0
30C0
31C0
1EF0
ENDCHAR
STARTCHAR Uhungarumlaut
ENCODING 368
SWIDTH 719 0
DWIDTH 13 0
BBX 13 17 0 0
BITMAP
0380
0500
0A00
0000
FCF8
3020
3020
3020
3020
3020
3020
3020
3020
3020
3020
1840
0F80
ENDCHAR
STARTCHAR uhungarumlaut
ENCODING 369
SWIDTH 633 0
DWIDTH 11 0
BBX 12 13 0 0
BITMAP
0380
0500
0A00
0000
F3C0
30C0
30C0
30C0
30C0
30C0
30C0
31C0
1EF0
ENDCHAR
STARTCHAR Uogonek
ENCODING 370
SWIDTH 719 0
DWIDTH 13 0
BBX 13 16 0 -3
BITMAP
FCF8
3020
3020
3020
3020
3020
3020
3020
3020
3020
3020
1840
0F80
0200
0400
0700
ENDCHAR
STARTCHAR uogonek
ENCODING 371
SWIDTH 633 0
DWIDTH 11 0
BBX 12 12 0 -3
BITMAP
F3C0
30C0
30C0
30C0
30C0
30C0
30C0
31C0
1EF0
0200
0400
0700
ENDCHAR
STARTCHAR Wcircumflex
ENCODING 372
SWIDTH 925 0
DWIDTH 17 0
BBX 17 17 0 0
BITMAP
018000
024000
042000
000000
F88780
60C100
70C200
31C200
31E200
316400
1A6400
1A6400
1A3C00
1C3800
0C3800
0C1800
081000
ENDCHAR
STARTCHAR wcircumflex
ENCODING 373
SWIDTH 795 0
DWIDTH 14 0
BBX 14 13 0 0
BITMAP
0300
0480
0840
0000
F11C
6308
6388
7398
35D0
34D0
38E0
1860
1060
ENDCHAR
STARTCHAR Ycircumflex
ENCODING 374
SWIDTH 678 0
DWIDTH 12 0
BBX 12 17 0 0
BITMAP
0600
0900
1080
0000
F870
7020
3040
38C0
1C80
0D00
0F00
0600
0600
0600
0600
0600
1F80
ENDCHAR
STARTCHAR ycircumflex
ENCODING 375
SWIDTH 551 0
DWIDTH 10 0
BBX 10 16 0 -3
BITMAP
0C00
1200
2100
0000
F1C0
6080
7080
3100
3900
1A00
1E00
0C00
0C00
0800
1800
7000
ENDCHAR
STARTCHAR Ydieresis
ENCODING 376
SWIDTH 678 0
DWIDTH 12 0
BBX 12 16 0 0
BITMAP
1B00
1B00
0000
F870
7020
3040
38C0
1C80
0D00
0F00
0600
0600
0600
0600
0600
1F80
ENDCHAR
STARTCHAR Zacute
ENCODING 377
SWIDTH 633 0
DWIDTH 11 0
BBX 9 17 1 0
BITMAP
0300
0400
0800
0000
FF80
8380
8300
0600
0E00
0C00
1C00
1800
3000
7000
6080
C080
FF80
ENDCHAR
STARTCHAR zacute
ENCODING 378
SWIDTH 595 0
DWIDTH 11 0
BBX 8 13 1 0
BITMAP
06
08
10
00
FF
86
8E
1C
18
30
71
E1
FF
ENDCHAR
STARTCHAR Zdotaccent
ENCODING 379
SWIDTH 633 0
DWIDTH 11 0
BBX 9 16 1 0
BITMAP
0C00
0C00
0000
FF80
8380
8300
0600
0E00
0C00
1C00
1800
3000
7000
6080
C080
FF80
ENDCHAR
STARTCHAR zdotaccent
ENCODING 380
SWIDTH 595 0
DWIDTH 11 0
BBX 8 12 1 0
BITMAP
18
18
00
FF
86
8E
1C
18
30
71
E1
FF
ENDCHAR
STARTCHAR Zcaron
ENCODING 381
SWIDTH 633 0
DWIDTH 11 0
BBX 9 17 1 0
BITMAP
2100
1200
0C00
0000
FF80
8380
8300
0600
0E00
0C00
1C00
1800
3000
7000
6080
C080
FF80
ENDCHAR
STARTCHAR zcaron
ENCODING 382
SWIDTH 595 0
DWIDTH 11 0
BBX 8 13 1 0
BITMAP
42
24
18
00
FF
86
8E
1C
18
30
71
E1
FF
ENDCHAR
STARTCHAR uni0186
ENCODING 390
SWIDTH 695 0
DWIDTH 12 0
BBX 10 13 1 0
BITMAP
7E00
8300
0180
0180
00C0
00C0
00C0
00C0
00C0
81C0
8180
C300
7E00
ENDCHAR
STARTCHAR uni0189
ENCODING 393
SWIDTH 768 0
DWIDTH 14 0
BBX 13 13 0 0
BITMAP
FFC0
3060
3030
3018
3018
3018
FE18
3018
3018
3010
3030
3060
FF80
ENDCHAR
STARTCHAR uni018E
ENCODING 398
SWIDTH 566 0
DWIDTH 10 0
BBX 10 13 0 0
BITMAP
FFC0
8300
8300
0300
0300
2300
3F00
2300
0300
0300
8300
8300
FFC0
ENDCHAR
STARTCHAR florin
ENCODING 402
SWIDTH 608 0
DWIDTH 11 0
BBX 8 16 2 -3
BITMAP
07
09
11
10
30
30
F8
20
60
60
60
60
40
C0
C0
C0
ENDCHAR
STARTCHAR uni0197
ENCODING 407
SWIDTH 325 0
DWIDTH 6 0
BBX 6 13 0 0
BITMAP
FC
30
30
30
30
30
FC
30
30
30
30
30
FC
ENDCHAR
STARTCHAR uni019A
ENCODING 410
SWIDTH 313 0
DWIDTH 6 0
BBX 6 13 0 0
BITMAP
F0
30
30
30
30
30
FC
30
30
30
30
30
FC
ENDCHAR
STARTCHAR uni019D
ENCODING 413
SWIDTH 751 0
DWIDTH 14 0
BBX 15 16 -1 -3
BITMAP
783E
1808
1C08
1608
1708
1388
11C8
10C8
1068
1878
1838
1818
1808
9800
9800
F000
ENDCHAR
STARTCHAR uni019F
ENCODING 415
SWIDTH 777 0
DWIDTH 14 0
BBX 12 13 1 0
BITMAP
1F80
30C0
6060
6060
C030
C030
FFF0
C030
C030
6060
6060
30C0
1F80
ENDCHAR
STARTCHAR Ohorn
ENCODING 416
SWIDTH 777 0
DWIDTH 14 0
BBX 13 13 1 0
BITMAP
1F98
30D8
6068
6068
C030
C030
C030
C030
C030
6060
6060
30C0
1F80
ENDCHAR
STARTCHAR ohorn
ENCODING 417
SWIDTH 602 0
DWIDTH 11 0
BBX 10 9 1 0
BITMAP
3EC0
63C0
C1C0
C1C0
C180
C180
C180
6300
3E00
ENDCHAR
STARTCHAR uni01A7
ENCODING 423
SWIDTH 542 0
DWIDTH 10 0
BBX 8 13 1 0
BITMAP
7C
46
43
03
07
1E
3C
70
C0
C0
C1
61
3F
ENDCHAR
STARTCHAR uni01A8
ENCODING 424
SWIDTH 504 0
DWIDTH 9 0
BBX 7 9 1 0
BITMAP
7C
46
46
1E
7C
F2
C2
C6
7C
ENDCHAR
STARTCHAR uni01AE
ENCODING 430
SWIDTH 663 0
DWIDTH 12 0
BBX 12 16 0 -3
BITMAP
FFF0
8610
0600
0600
0600
0600
0600
0600
0600
0600
0600
0600
0600
0640
0640
03C0
ENDCHAR
STARTCHAR Uhorn
ENCODING 431
SWIDTH 719 0
DWIDTH 13 0
BBX 14 13 0 0
BITMAP
FCFC
302C
3024
3024
3028
3020
3020
3020
3020
3020
3020
1840
0F80
ENDCHAR
STARTCHAR uhorn
ENCODING 432
SWIDTH 633 0
DWIDTH 11 0
BBX 13 9 0 0
BITMAP
F3D8
30D8
30C8
30C8
30D0
30C0
30C0
31C0
1EF0
ENDCHAR
STARTCHAR uni01B5
ENCODING 437
SWIDTH 633 0
DWIDTH 11 0
BBX 9 13 1 0
BITMAP
FF80
8380
8300
0600
0E00
0C00
3F00
1800
3000
7000
6080
C080
FF80
ENDCHAR
STARTCHAR uni01B6
ENCODING 438
SWIDTH 595 0
DWIDTH 11 0
BBX 8 9 1 0
BITMAP
FF
86
8E
1C
7E
30
71
E1
FF
ENDCHAR
STARTCHAR uni01BB
ENCODING 443
SWIDTH 608 0
DWIDTH 11 0
BBX 8 13 1 0
BITMAP
7C
C6
83
83
03
06
FF
18
20
40
40
FF
FF
ENDCHAR
STARTCHAR uni01BC
ENCODING 444
SWIDTH 608 0
DWIDTH 11 0
BBX 7 13 2 0
BITMAP
FE
FE
80
80
80
F0
0C
06
06
06
86
8C
F8
ENDCHAR
STARTCHAR uni01C0
ENCODING 448
SWIDTH 241 0
DWIDTH 4 0
BBX 1 16 2 -3
BITMAP
80
80
80
80
80
80
80
80
80
80
80
80
80
80
80
80
ENDCHAR
STARTCHAR uni01C2
ENCODING 450
SWIDTH 608 0
DWIDTH 11 0
BBX 10 16 0 -3
BITMAP
0400
0400
0400
0400
0400
0400
FFC0
0400
0400
FFC0
0400
0400
0400
0400
0400
0400
ENDCHAR
STARTCHAR uni01C3
ENCODING 451
SWIDTH 265 0
DWIDTH 5 0
BBX 2 13 1 0
BITMAP
C0
C0
C0
C0
C0
C0
80
80
80
80
00
C0
C0
ENDCHAR
STARTCHAR uni01CD
ENCODING 461
SWIDTH 744 0
DWIDTH 13 0
BBX 13 17 0 0
BITMAP
1080
0900
0600
0000
0200
0600
0700
0700
0980
0980
11C0
10C0
3FC0
2060
2060
4030
E0F8
ENDCHAR
STARTCHAR uni01CE
ENCODING 462
SWIDTH 543 0
DWIDTH 10 0
BBX 8 13 1 0
BITMAP
42
24
18
00
7C
46
46
06
3E
E6
C6
C6
7B
ENDCHAR
STARTCHAR uni01CF
ENCODING 463
SWIDTH 325 0
DWIDTH 6 0
BBX 6 17 0 0
BITMAP
84
48
30
00
FC
30
30
30
30
30
30
30
30
30
30
30
FC
ENDCHAR
STARTCHAR uni01D0
ENCODING 464
SWIDTH 307 0
DWIDTH 6 0
BBX 6 13 0 0
BITMAP
84
48
30
00
F0
30
30
30
30
30
30
30
FC
ENDCHAR
STARTCHAR uni01D1
ENCODING 465
SWIDTH 777 0
DWIDTH 14 0
BBX 12 17 1 0
BITMAP
1080
0900
0600
0000
1F80
30C0
6060
6060
C030
C030
C030
C030
C030
6060
6060
30C0
1F80
ENDCHAR
STARTCHAR uni01D2
ENCODING 466
SWIDTH 602 0
DWIDTH 11 0
BBX 9 13 1 0
BITMAP
2100
1200
0C00
0000
3E00
6300
C180
C180
C180
C180
C180
6300
3E00
ENDCHAR
STARTCHAR uni01D3
ENCODING 467
SWIDTH 719 0
DWIDTH 13 0
BBX 13 17 0 0
BITMAP
1080
0900
0600
0000
FCF8
3020
3020
3020
3020
3020
3020
3020
3020
3020
3020
1840
0F80
ENDCHAR
STARTCHAR uni01D4
ENCODING 468
SWIDTH 633 0
DWIDTH 11 0
BBX 12 13 0 0
BITMAP
1080
0900
0600
0000
F3C0
30C0
30C0
30C0
30C0
30C0
30C0
31C0
1EF0
ENDCHAR
STARTCHAR uni01D5
ENCODING 469
SWIDTH 719 0
DWIDTH 13 0
BBX 13 18 0 0
BITMAP
0F80
0000
0D80
0D80
0000
FCF8
3020
3020
3020
3020
3020
3020
3020
3020
3020
3020
1840
0F80
ENDCHAR
STARTCHAR uni01D6
ENCODING 470
SWIDTH 633 0
DWIDTH 11 0
BBX 12 14 0 0
BITMAP
1F00
0000
0D80
0D80
0000
F3C0
30C0
30C0
30C0
30C0
30C0
30C0
31C0
1EF0
ENDCHAR
STARTCHAR uni01D7
ENCODING 471
SWIDTH 719 0
DWIDTH 13 0
BBX 13 20 0 0
BITMAP
0180
0200
0400
0000
0D80
0D80
0000
FCF8
3020
3020
3020
3020
3020
3020
3020
3020
3020
3020
1840
0F80
ENDCHAR
STARTCHAR uni01D8
ENCODING 472
SWIDTH 633 0
DWIDTH 11 0
BBX 12 16 0 0
BITMAP
0180
0200
0400
0000
0D80
0D80
0000
F3C0
30C0
30C0
30C0
30C0
30C0
30C0
31C0
1EF0
ENDCHAR
STARTCHAR uni01D9
ENCODING 473
SWIDTH 719 0
DWIDTH 13 0
BBX 13 20 0 0
BITMAP
1080
0900
0600
0000
0D80
0D80
0000
FCF8
3020
3020
3020
3020
3020
3020
3020
3020
3020
3020
1840
0F80
ENDCHAR
STARTCHAR uni01DA
ENCODING 474
SWIDTH 633 0
DWIDTH 11 0
BBX 12 16 0 0
BITMAP
1080
0900
0600
0000
0D80
0D80
0000
F3C0
30C0
30C0
30C0
30C0
30C0
30C0
31C0
1EF0
ENDCHAR
STARTCHAR uni01DB
ENCODING 475
SWIDTH 719 0
DWIDTH 13 0
BBX 13 20 0 0
BITMAP
1800
0400
0200
0000
0D80
0D80
0000
FCF8
3020
3020
3020
3020
3020
3020
3020
3020
3020
3020
1840
0F80
ENDCHAR
STARTCHAR uni01DC
ENCODING 476
SWIDTH 633 0
DWIDTH 11 0
BBX 12 16 0 0
BITMAP
1800
0400
0200
0000
0D80
0D80
0000
F3C0
30C0
30C0
30C0
30C0
30C0
30C0
31C0
1EF0
ENDCHAR
STARTCHAR uni01DD
ENCODING 477
SWIDTH 530 0
DWIDTH 10 0
BBX 8 9 1 0
BITMAP
7C
86
03
03
FF
C3
C3
46
3C
ENDCHAR
STARTCHAR uni01DE
ENCODING 478
SWIDTH 744 0
DWIDTH 13 0
BBX 13 18 0 0
BITMAP
0F80
0000
0D80
0D80
0000
0200
0600
0700
0700
0980
0980
11C0
10C0
3FC0
2060
2060
4030
E0F8
ENDCHAR
STARTCHAR uni01DF
ENCODING 479
SWIDTH 543 0
DWIDTH 10 0
BBX 8 14 1 0
BITMAP
7C
00
6C
6C
00
7C
46
46
06
3E
E6
C6
C6
7B
ENDCHAR
STARTCHAR uni01E0
ENCODING 480
SWIDTH 744 0
DWIDTH 13 0
BBX 13 18 0 0
BITMAP
0F80
0000
0600
0600
0000
0200
0600
0700
0700
0980
0980
11C0
10C0
3FC0
2060
2060
4030
E0F8
ENDCHAR
STARTCHAR uni01E1
ENCODING 481
SWIDTH 543 0
DWIDTH 10 0
BBX 8 14 1 0
BITMAP
7C
00
18
18
00
7C
46
46
06
3E
E6
C6
C6
7B
ENDCHAR
STARTCHAR uni01E2
ENCODING 482
SWIDTH 919 0
DWIDTH 17 0
BBX 16 15 0 0
BITMAP
01F0
0000
00FF
01E1
0161
0360
0660
0462
087E
0860
1FE0
2060
2060
4061
E1FF
ENDCHAR
STARTCHAR uni01E3
ENCODING 483
SWIDTH 819 0
DWIDTH 15 0
BBX 12 11 1 0
BITMAP
0F80
0000
79C0
4720
4630
0630
3FF0
E600
C600
C710
79E0
ENDCHAR
STARTCHAR uni01E4
ENCODING 484
SWIDTH 732 0
DWIDTH 13 0
BBX 14 13 1 0
BITMAP
0FC0
3860
6020
6000
C000
C000
C000
C1F8
C060
60FC
6060
3860
0FC0
ENDCHAR
STARTCHAR uni01E5
ENCODING 485
SWIDTH 571 0
DWIDTH 10 0
BBX 10 12 0 -3
BITMAP
3FC0
7600
6300
6300
2300
1700
7E00
6000
3F80
FFC0
C180
7E00
ENDCHAR
STARTCHAR Gcaron
ENCODING 486
SWIDTH 732 0
DWIDTH 13 0
BBX 13 17 1 0
BITMAP
1080
0900
0600
0000
0FC0
3860
6020
6000
C000
C000
C000
C1F8
C060
6060
6060
3860
0FC0
ENDCHAR
STARTCHAR gcaron
ENCODING 487
SWIDTH 571 0
DWIDTH 10 0
BBX 10 16 0 -3
BITMAP
2100
1200
0C00
0000
3FC0
7600
6300
6300
2300
1700
7E00
6000
3F80
C180
C180
7E00
ENDCHAR
STARTCHAR uni01E8
ENCODING 488
SWIDTH 708 0
DWIDTH 13 0
BBX 12 17 1 0
BITMAP
1080
0900
0600
0000
FCE0
30C0
3180
3300
3600
3400
3C00
3600
3700
3380
31C0
30E0
F9F0
ENDCHAR
STARTCHAR uni01E9
ENCODING 489
SWIDTH 599 0
DWIDTH 11 0
BBX 10 17 1 0
BITMAP
8400
4800
3000
0000
F000
3000
3000
3000
3180
3100
3200
3400
3C00
3600
3700
3380
F9C0
ENDCHAR
STARTCHAR uni01EA
ENCODING 490
SWIDTH 777 0
DWIDTH 14 0
BBX 12 16 1 -3
BITMAP
1F80
30C0
6060
6060
C030
C030
C030
C030
C030
6060
6060
30C0
1F80
0200
0400
0700
ENDCHAR
STARTCHAR uni01EB
ENCODING 491
SWIDTH 602 0
DWIDTH 11 0
BBX 9 12 1 -3
BITMAP
3E00
6300
C180
C180
C180
C180
C180
6300
3E00
0800
1000
1C00
ENDCHAR
STARTCHAR uni01EC
ENCODING 492
SWIDTH 777 0
DWIDTH 14 0
BBX 12 18 1 -3
BITMAP
0F80
0000
1F80
30C0
6060
6060
C030
C030
C030
C030
C030
6060
6060
30C0
1F80
0200
0400
0700
ENDCHAR
STARTCHAR uni01ED
ENCODING 493
SWIDTH 602 0
DWIDTH 11 0
BBX 9 14 1 -3
BITMAP
3E00
0000
3E00
6300
C180
C180
C180
C180
C180
6300
3E00
0800
1000
1C00
ENDCHAR
STARTCHAR uni01F0
ENCODING 496
SWIDTH 346 0
DWIDTH 6 0
BBX 6 16 0 -3
BITMAP
84
48
30
00
38
18
18
18
18
18
18
18
18
98
98
F0
ENDCHAR
STARTCHAR uni01F4
ENCODING 500
SWIDTH 732 0
DWIDTH 13 0
BBX 13 17 1 0
BITMAP
0180
0200
0400
0000
0FC0
3860
6020
6000
C000
C000
C000
C1F8
C060
6060
6060
3860
0FC0
ENDCHAR
STARTCHAR uni01F5
ENCODING 501
SWIDTH 571 0
DWIDTH 10 0
BBX 10 16 0 -3
BITMAP
0300
0400
0800
0000
3FC0
7600
6300
6300
2300
1700
7E00
6000
3F80
C180
C180
7E00
ENDCHAR
STARTCHAR uni01F8
ENCODING 504
SWIDTH 751 0
DWIDTH 14 0
BBX 14 17 0 0
BITMAP
0C00
0200
0100
0000
F07C
3010
3810
2C10
2E10
2710
2390
2190
20D0
20F0
2070
2030
F810
ENDCHAR
STARTCHAR uni01F9
ENCODING 505
SWIDTH 633 0
DWIDTH 11 0
BBX 12 13 0 0
BITMAP
3000
0800
0400
0000
F780
38C0
30C0
30C0
30C0
30C0
30C0
30C0
FFF0
ENDCHAR
STARTCHAR Aringacute
ENCODING 506
SWIDTH 744 0
DWIDTH 13 0
BBX 13 21 0 0
BITMAP
00C0
0100
0200
0000
0700
0500
0700
0000
0200
0600
0700
0700
0980
0980
11C0
10C0
3FC0
2060
2060
4030
E0F8
ENDCHAR
STARTCHAR aringacute
ENCODING 507
SWIDTH 543 0
DWIDTH 10 0
BBX 8 17 1 0
BITMAP
06
08
10
00
38
28
38
00
7C
46
46
06
3E
E6
C6
C6
7B
ENDCHAR
STARTCHAR AEacute
ENCODING 508
SWIDTH 919 0
DWIDTH 17 0
BBX 16 17 0 0
BITMAP
0018
0020
0040
0000
00FF
01E1
0161
0360
0660
0462
087E
0860
1FE0
2060
2060
4061
E1FF
ENDCHAR
STARTCHAR aeacute
ENCODING 509
SWIDTH 819 0
DWIDTH 15 0
BBX 12 13 1 0
BITMAP
0180
0200
0400
0000
79C0
4720
4630
0630
3FF0
E600
C600
C710
79E0
ENDCHAR
STARTCHAR Oslashacute
ENCODING 510
SWIDTH 777 0
DWIDTH 14 0
BBX 12 17 1 0
BITMAP
0180
0200
0400
0000
1F10
30E0
6060
60F0
C1B0
C330
C630
CC30
C830
F060
6060
70C0
CF80
ENDCHAR
STARTCHAR oslashacute
ENCODING 511
SWIDTH 602 0
DWIDTH 11 0
BBX 9 13 1 0
BITMAP
0300
0400
0800
0000
3C80
6300
C380
C580
C980
D180
E180
6300
DE00
ENDCHAR
STARTCHAR uni0200
ENCODING 512
SWIDTH 744 0
DWIDTH 13 0
BBX 13 17 0 0
BITMAP
1C00
0A00
0500
0000
0200
0600
0700
0700
0980
0980
11C0
10C0
3FC0
2060
2060
4030
E0F8
ENDCHAR
STARTCHAR uni0201
ENCODING 513
SWIDTH 543 0
DWIDTH 10 0
BBX 8 13 1 0
BITMAP
70
28
14
00
7C
46
46
06
3E
E6
C6
C6
7B
ENDCHAR
STARTCHAR uni0202
ENCODING 514
SWIDTH 744 0
DWIDTH 13 0
BBX 13 17 0 0
BITMAP
0F00
0F00
1080
0000
0200
0600
0700
0700
0980
0980
11C0
10C0
3FC0
2060
2060
4030
E0F8
ENDCHAR
STARTCHAR uni0203
ENCODING 515
SWIDTH 543 0
DWIDTH 10 0
BBX 8 13 1 0
BITMAP
3C
3C
42
00
7C
46
46
06
3E
E6
C6
C6
7B
ENDCHAR
STARTCHAR uni0204
ENCODING 516
SWIDTH 566 0
DWIDTH 10 0
BBX 10 17 0 0
BITMAP
3800
1400
0A00
0000
FFC0
3040
3040
3000
3000
3100
3F00
3100
3000
3000
3040
3040
FFC0
ENDCHAR
STARTCHAR uni0205
ENCODING 517
SWIDTH 530 0
DWIDTH 10 0
BBX 8 13 1 0
BITMAP
70
28
14
00
3C
62
C3
C3
FF
C0
C0
61
3E
ENDCHAR
STARTCHAR uni0206
ENCODING 518
SWIDTH 566 0
DWIDTH 10 0
BBX 10 17 0 0
BITMAP
1E00
1E00
2100
0000
FFC0
3040
3040
3000
3000
3100
3F00
3100
3000
3000
3040
3040
FFC0
ENDCHAR
STARTCHAR uni0207
ENCODING 519
SWIDTH 530 0
DWIDTH 10 0
BBX 8 13 1 0
BITMAP
3C
3C
42
00
3C
62
C3
C3
FF
C0
C0
61
3E
ENDCHAR
STARTCHAR uni0208
ENCODING 520
SWIDTH 325 0
DWIDTH 6 0
BBX 6 17 0 0
BITMAP
E0
50
28
00
FC
30
30
30
30
30
30
30
30
30
30
30
FC
ENDCHAR
STARTCHAR uni0209
ENCODING 521
SWIDTH 307 0
DWIDTH 6 0
BBX 6 13 0 0
BITMAP
E0
50
28
00
F0
30
30
30
30
30
30
30
FC
ENDCHAR
STARTCHAR uni020A
ENCODING 522
SWIDTH 325 0
DWIDTH 6 0
BBX 6 17 0 0
BITMAP
78
78
84
00
FC
30
30
30
30
30
30
30
30
30
30
30
FC
ENDCHAR
STARTCHAR uni020B
ENCODING 523
SWIDTH 307 0
DWIDTH 6 0
BBX 6 13 0 0
BITMAP
78
78
84
00
F0
30
30
30
30
30
30
30
FC
ENDCHAR
STARTCHAR uni020C
ENCODING 524
SWIDTH 777 0
DWIDTH 14 0
BBX 12 17 1 0
BITMAP
1C00
0A00
0500
0000
1F80
30C0
6060
6060
C030
C030
C030
C030
C030
6060
6060
30C0
1F80
ENDCHAR
STARTCHAR uni020D
ENCODING 525
SWIDTH 602 0
DWIDTH 11 0
BBX 9 13 1 0
BITMAP
7000
2800
1400
0000
3E00
6300
C180
C180
C180
C180
C180
6300
3E00
ENDCHAR
STARTCHAR uni020E
ENCODING 526
SWIDTH 777 0
DWIDTH 14 0
BBX 12 17 1 0
BITMAP
0F00
0F00
1080
0000
1F80
30C0
6060
6060
C030
C030
C030
C030
C030
6060
6060
30C0
1F80
ENDCHAR
STARTCHAR uni020F
ENCODING 527
SWIDTH 602 0
DWIDTH 11 0
BBX 9 13 1 0
BITMAP
1E00
1E00
2100
0000
3E00
6300
C180
C180
C180
C180
C180
6300
3E00
ENDCHAR
STARTCHAR uni0210
ENCODING 528
SWIDTH 679 0
DWIDTH 12 0
BBX 12 17 0 0
BITMAP
3800
1400
0A00
0000
FF00
3180
30C0
30C0
30C0
3180
3F00
3300
3300
3180
31C0
30E0
F870
ENDCHAR
STARTCHAR uni0211
ENCODING 529
SWIDTH 440 0
DWIDTH 8 0
BBX 8 13 0 0
BITMAP
70
28
14
00
F7
39
31
30
30
30
30
30
FC
ENDCHAR
STARTCHAR uni0212
ENCODING 530
SWIDTH 679 0
DWIDTH 12 0
BBX 12 17 0 0
BITMAP
1E00
1E00
2100
0000
FF00
3180
30C0
30C0
30C0
3180
3F00
3300
3300
3180
31C0
30E0
F870
ENDCHAR
STARTCHAR uni0213
ENCODING 531
SWIDTH 440 0
DWIDTH 8 0
BBX 8 13 0 0
BITMAP
3C
3C
42
00
F7
39
31
30
30
30
30
30
FC
ENDCHAR
STARTCHAR uni0214
ENCODING 532
SWIDTH 719 0
DWIDTH 13 0
BBX 13 17 0 0
BITMAP
1C00
0A00
0500
0000
FCF8
3020
3020
3020
3020
3020
3020
3020
3020
3020
3020
1840
0F80
ENDCHAR
STARTCHAR uni0215
ENCODING 533
SWIDTH 633 0
DWIDTH 11 0
BBX 12 13 0 0
BITMAP
1C00
0A00
0500
0000
F3C0
30C0
30C0
30C0
30C0
30C0
30C0
31C0
1EF0
ENDCHAR
STARTCHAR uni0216
ENCODING 534
SWIDTH 719 0
DWIDTH 13 0
BBX 13 17 0 0
BITMAP
0F00
0F00
1080
0000
FCF8
3020
3020
3020
3020
3020
3020
3020
3020
3020
3020
1840
0F80
ENDCHAR
STARTCHAR uni0217
ENCODING 535
SWIDTH 633 0
DWIDTH 11 0
BBX 12 13 0 0
BITMAP
0F00
0F00
1080
0000
F3C0
30C0
30C0
30C0
30C0
30C0
30C0
31C0
1EF0
ENDCHAR
STARTCHAR Scommaaccent
ENCODING 536
SWIDTH 542 0
DWIDTH 10 0
BBX 8 19 1 -6
BITMAP
3E
62
C2
C0
E0
78
3C
0E
03
03
83
86
FC
00
18
18
08
08
10
ENDCHAR
STARTCHAR scommaaccent
ENCODING 537
SWIDTH 504 0
DWIDTH 9 0
BBX 7 15 1 -6
BITMAP
7C
C4
C4
F0
7C
9E
86
C6
7C
00
18
18
08
08
10
ENDCHAR
STARTCHAR Tcommaaccent
ENCODING 538
SWIDTH 663 0
DWIDTH 12 0
BBX 12 19 0 -6
BITMAP
FFF0
8610
0600
0600
0600
0600
0600
0600
0600
0600
0600
0600
1F80
0000
0600
0600
0200
0200
0400
ENDCHAR
STARTCHAR tcommaaccent
ENCODING 539
SWIDTH 392 0
DWIDTH 7 0
BBX 6 18 1 -6
BITMAP
60
60
60
FC
60
60
60
60
60
60
60
3C
00
30
30
10
10
20
ENDCHAR
STARTCHAR uni021E
ENCODING 542
SWIDTH 771 0
DWIDTH 14 0
BBX 14 17 0 0
BITMAP
0840
0480
0300
0000
FCFC
3030
3030
3030
3030
3030
3FF0
3030
3030
3030
3030
3030
FCFC
ENDCHAR
STARTCHAR uni021F
ENCODING 543
SWIDTH 633 0
DWIDTH 11 0
BBX 12 17 0 0
BITMAP
4200
2400
1800
0000
F000
3000
3000
3000
3780
38C0
30C0
30C0
30C0
30C0
30C0
30C0
FFF0
ENDCHAR
STARTCHAR uni0226
ENCODING 550
SWIDTH 744 0
DWIDTH 13 0
BBX 13 16 0 0
BITMAP
0600
0600
0000
0200
0600
0700
0700
0980
0980
11C0
10C0
3FC0
2060
2060
4030
E0F8
ENDCHAR
STARTCHAR uni0227
ENCODING 551
SWIDTH 543 0
DWIDTH 10 0
BBX 8 12 1 0
BITMAP
18
18
00
7C
46
46
06
3E
E6
C6
C6
7B
ENDCHAR
STARTCHAR uni0228
ENCODING 552
SWIDTH 566 0
DWIDTH 10 0
BBX 10 16 0 -3
BITMAP
FFC0
3040
3040
3000
3000
3100
3F00
3100
3000
3000
3040
3040
FFC0
0C00
0600
0E00
ENDCHAR
STARTCHAR uni0229
ENCODING 553
SWIDTH 530 0
DWIDTH 10 0
BBX 8 12 1 -3
BITMAP
3C
62
C3
C3
FF
C0
C0
61
3E
18
0C
1C
ENDCHAR
STARTCHAR uni022A
ENCODING 554
SWIDTH 777 0
DWIDTH 14 0
BBX 12 18 1 0
BITMAP
1F00
0000
1B00
1B00
0000
1F80
30C0
6060
6060
C030
C030
C030
C030
C030
6060
6060
30C0
1F80
ENDCHAR
STARTCHAR uni022B
ENCODING 555
SWIDTH 602 0
DWIDTH 11 0
BBX 9 14 1 0
BITMAP
3E00
0000
3600
3600
0000
3E00
6300
C180
C180
C180
C180
C180
6300
3E00
ENDCHAR
STARTCHAR uni022C
ENCODING 556
SWIDTH 777 0
DWIDTH 14 0
BBX 12 18 1 0
BITMAP
0F80
0000
0C80
1300
0000
1F80
30C0
6060
6060
C030
C030
C030
C030
C030
6060
6060
30C0
1F80
ENDCHAR
STARTCHAR uni022D
ENCODING 557
SWIDTH 602 0
DWIDTH 11 0
BBX 9 14 1 0
BITMAP
3E00
0000
3200
4C00
0000
3E00
6300
C180
C180
C180
C180
C180
6300
3E00
ENDCHAR
STARTCHAR uni022E
ENCODING 558
SWIDTH 777 0
DWIDTH 14 0
BBX 12 16 1 0
BITMAP
0600
0600
0000
1F80
30C0
6060
6060
C030
C030
C030
C030
C030
6060
6060
30C0
1F80
ENDCHAR
STARTCHAR uni022F
ENCODING 559
SWIDTH 602 0
DWIDTH 11 0
BBX 9 12 1 0
BITMAP
0C00
0C00
0000
3E00
6300
C180
C180
C180
C180
C180
6300
3E00
ENDCHAR
STARTCHAR uni0230
ENCODING 560
SWIDTH 777 0
DWIDTH 14 0
BBX 12 18 1 0
BITMAP
0F80
0000
0600
0600
0000
1F80
30C0
6060
6060
C030
C030
C030
C030
C030
6060
6060
30C0
1F80
ENDCHAR
STARTCHAR uni0231
ENCODING 561
SWIDTH 602 0
DWIDTH 11 0
BBX 9 14 1 0
BITMAP
3E00
0000
0C00
0C00
0000
3E00
6300
C180
C180
C180
C180
C180
6300
3E00
ENDCHAR
STARTCHAR uni0232
ENCODING 562
SWIDTH 678 0
DWIDTH 12 0
BBX 12 15 0 0
BITMAP
1F00
0000
F870
7020
3040
38C0
1C80
0D00
0F00
0600
0600
0600
0600
0600
1F80
ENDCHAR
STARTCHAR uni0233
ENCODING 563
SWIDTH 551 0
DWIDTH 10 0
BBX 10 14 0 -3
BITMAP
3E00
0000
F1C0
6080
7080
3100
3900
1A00
1E00
0C00
0C00
0800
1800
7000
ENDCHAR
STARTCHAR uni0250
ENCODING 592
SWIDTH 543 0
DWIDTH 10 0
BBX 8 9 1 0
BITMAP
DE
63
63
67
7C
60
62
62
3E
ENDCHAR
STARTCHAR uni0254
ENCODING 596
SWIDTH 509 0
DWIDTH 9 0
BBX 7 9 1 0
BITMAP
F8
8C
86
06
06
06
06
0C
F8
ENDCHAR
STARTCHAR uni0258
ENCODING 600
SWIDTH 530 0
DWIDTH 10 0
BBX 8 9 1 0
BITMAP
3C
46
C3
C3
FF
03
03
86
7C
ENDCHAR
STARTCHAR uni0259
ENCODING 601
SWIDTH 530 0
DWIDTH 10 0
BBX 8 9 1 0
BITMAP
7C
86
03
03
FF
C3
C3
46
3C
ENDCHAR
STARTCHAR uni025F
ENCODING 607
SWIDTH 404 0
DWIDTH 7 0
BBX 7 14 1 -5
BITMAP
3E
18
18
18
18
18
18
18
7E
18
18
98
98
F0
ENDCHAR
STARTCHAR uni0265
ENCODING 613
SWIDTH 633 0
DWIDTH 11 0
BBX 12 13 0 -4
BITMAP
FFF0
30C0
30C0
30C0
30C0
30C0
30C0
31C0
1EC0
00C0
00C0
00C0
00F0
ENDCHAR
STARTCHAR uni0275
ENCODING 629
SWIDTH 602 0
DWIDTH 11 0
BBX 9 9 1 0
BITMAP
3E00
6300
C180
C180
FF80
C180
C180
6300
3E00
ENDCHAR
STARTCHAR uni0279
ENCODING 633
SWIDTH 440 0
DWIDTH 8 0
BBX 8 9 0 0
BITMAP
3F
0C
0C
0C
0C
0C
8C
9C
EF
ENDCHAR
STARTCHAR uni0287
ENCODING 647
SWIDTH 392 0
DWIDTH 7 0
BBX 6 12 1 0
BITMAP
F0
18
18
18
18
18
18
18
FC
18
18
18
ENDCHAR
STARTCHAR uni0288
ENCODING 648
SWIDTH 392 0
DWIDTH 7 0
BBX 6 15 1 -3
BITMAP
60
60
60
FC
60
60
60
60
60
60
60
60
64
64
3C
ENDCHAR
STARTCHAR uni0289
ENCODING 649
SWIDTH 633 0
DWIDTH 11 0
BBX 12 9 0 0
BITMAP
F3C0
30C0
30C0
30C0
FFF0
30C0
30C0
31C0
1EF0
ENDCHAR
STARTCHAR uni028C
ENCODING 652
SWIDTH 545 0
DWIDTH 10 0
BBX 10 9 0 0
BITMAP
0C00
0C00
1E00
1600
2300
2300
4180
4180
E3C0
ENDCHAR
STARTCHAR uni028D
ENCODING 653
SWIDTH 795 0
DWIDTH 14 0
BBX 14 9 0 0
BITMAP
1820
1860
1C70
2CB0
2EB0
6738
4718
4318
E23C
ENDCHAR
STARTCHAR uni028E
ENCODING 654
SWIDTH 551 0
DWIDTH 10 0
BBX 10 12 0 0
BITMAP
0380
0600
0400
0C00
0C00
1E00
1600
2700
2300
4380
4180
E3C0
ENDCHAR
STARTCHAR uni029E
ENCODING 670
SWIDTH 599 0
DWIDTH 11 0
BBX 10 13 1 -4
BITMAP
E7C0
7300
3B00
1B00
0F00
0B00
1300
2300
6300
0300
0300
0300
03C0
ENDCHAR
STARTCHAR uni02BB
ENCODING 699
SWIDTH 265 0
DWIDTH 5 0
BBX 2 5 1 8
BITMAP
40
80
80
C0
C0
ENDCHAR
STARTCHAR afii57929
ENCODING 700
SWIDTH 265 0
DWIDTH 5 0
BBX 2 5 1 8
BITMAP
C0
C0
40
40
80
ENDCHAR
STARTCHAR afii64937
ENCODING 701
SWIDTH 265 0
DWIDTH 5 0
BBX 2 5 1 8
BITMAP
C0
C0
80
80
40
ENDCHAR
STARTCHAR circumflex
ENCODING 710
SWIDTH 602 0
DWIDTH 11 0
BBX 6 3 2 10
BITMAP
30
48
84
ENDCHAR
STARTCHAR caron
ENCODING 711
SWIDTH 602 0
DWIDTH 11 0
BBX 6 3 2 10
BITMAP
84
48
30
ENDCHAR
STARTCHAR uni02C8
ENCODING 712
SWIDTH 241 0
DWIDTH 4 0
BBX 3 4 1 9
BITMAP
E0
E0
40
40
ENDCHAR
STARTCHAR macron
ENCODING 713
SWIDTH 602 0
DWIDTH 11 0
BBX 5 1 3 12
BITMAP
F8
ENDCHAR
STARTCHAR uni02CA
ENCODING 714
SWIDTH 602 0
DWIDTH 11 0
BBX 4 3 4 10
BITMAP
30
40
80
ENDCHAR
STARTCHAR uni02CB
ENCODING 715
SWIDTH 602 0
DWIDTH 11 0
BBX 4 3 3 10
BITMAP
C0
20
10
ENDCHAR
STARTCHAR uni02CD
ENCODING 717
SWIDTH 602 0
DWIDTH 11 0
BBX 5 1 3 -2
BITMAP
F8
ENDCHAR
STARTCHAR uni02CE
ENCODING 718
SWIDTH 602 0
DWIDTH 11 0
BBX 4 3 3 -4
BITMAP
C0
20
10
ENDCHAR
STARTCHAR uni02CF
ENCODING 719
SWIDTH 602 0
DWIDTH 11 0
BBX 4 3 4 -4
BITMAP
30
40
80
ENDCHAR
STARTCHAR breve
ENCODING 728
SWIDTH 602 0
DWIDTH 11 0
BBX 6 3 2 10
BITMAP
84
78
78
ENDCHAR
STARTCHAR dotaccent
ENCODING 729
SWIDTH 602 0
DWIDTH 11 0
BBX 2 2 4 11
BITMAP
C0
C0
ENDCHAR
STARTCHAR ring
ENCODING 730
SWIDTH 602 0
DWIDTH 11 0
BBX 3 3 4 11
BITMAP
E0
A0
E0
ENDCHAR
STARTCHAR ogonek
ENCODING 731
SWIDTH 602 0
DWIDTH 11 0
BBX 3 3 4 -3
BITMAP
40
80
E0
ENDCHAR
STARTCHAR tilde
ENCODING 732
SWIDTH 602 0
DWIDTH 11 0
BBX 6 2 2 11
BITMAP
64
98
ENDCHAR
STARTCHAR hungarumlaut
ENCODING 733
SWIDTH 602 0
DWIDTH 11 0
BBX 5 3 4 10
BITMAP
38
50
A0
ENDCHAR
STARTCHAR uni02EE
ENCODING 750
SWIDTH 458 0
DWIDTH 8 0
BBX 5 5 2 8
BITMAP
D8
D8
48
48
90
ENDCHAR
STARTCHAR uni037E
ENCODING 894
SWIDTH 265 0
DWIDTH 5 0
BBX 2 12 1 -3
BITMAP
C0
C0
00
00
00
00
00
C0
C0
40
40
80
ENDCHAR
STARTCHAR tonos
ENCODING 900
SWIDTH 602 0
DWIDTH 11 0
BBX 4 3 4 10
BITMAP
30
40
80
ENDCHAR
STARTCHAR dieresistonos
ENCODING 901
SWIDTH 602 0
DWIDTH 11 0
BBX 6 6 3 11
BITMAP
0C
10
20
00
D8
D8
ENDCHAR
STARTCHAR anoteleia
ENCODING 903
SWIDTH 608 0
DWIDTH 11 0
BBX 2 2 4 4
BITMAP
C0
C0
ENDCHAR
STARTCHAR mu
ENCODING 956
SWIDTH 626 0
DWIDTH 11 0
BBX 12 12 0 -3
BITMAP
F3C0
30C0
30C0
30C0
30C0
30C0
30C0
31C0
3EF0
3000
3000
3000
ENDCHAR
STARTCHAR uni1E00
ENCODING 7680
SWIDTH 744 0
DWIDTH 13 0
BBX 13 17 0 -4
BITMAP
0200
0600
0700
0700
0980
0980
11C0
10C0
3FC0
2060
2060
4030
E0F8
0000
0380
0280
0380
ENDCHAR
STARTCHAR uni1E01
ENCODING 7681
SWIDTH 543 0
DWIDTH 10 0
BBX 8 13 1 -4
BITMAP
7C
46
46
06
3E
E6
C6
C6
7B
00
38
28
38
ENDCHAR
STARTCHAR uni1E02
ENCODING 7682
SWIDTH 609 0
DWIDTH 11 0
BBX 10 16 0 0
BITMAP
0C00
0C00
0000
FF00
3380
3180
3180
3180
3200
3F00
3380
30C0
30C0
30C0
31C0
FF00
ENDCHAR
STARTCHAR uni1E03
ENCODING 7683
SWIDTH 611 0
DWIDTH 11 0
BBX 11 16 0 0
BITMAP
1800
1800
0000
F000
3000
3000
3000
3780
38C0
3060
3060
3060
3060
3060
38C0
2780
ENDCHAR
STARTCHAR uni1E04
ENCODING 7684
SWIDTH 609 0
DWIDTH 11 0
BBX 10 16 0 -3
BITMAP
FF00
3380
3180
3180
3180
3200
3F00
3380
30C0
30C0
30C0
31C0
FF00
0000
0C00
0C00
ENDCHAR
STARTCHAR uni1E05
ENCODING 7685
SWIDTH 611 0
DWIDTH 11 0
BBX 11 16 0 -3
BITMAP
F000
3000
3000
3000
3780
38C0
3060
3060
3060
3060
3060
38C0
2780
0000
0600
0600
ENDCHAR
STARTCHAR uni1E06
ENCODING 7686
SWIDTH 609 0
DWIDTH 11 0
BBX 10 15 0 -2
BITMAP
FF00
3380
3180
3180
3180
3200
3F00
3380
30C0
30C0
30C0
31C0
FF00
0000
1F00
ENDCHAR
STARTCHAR uni1E07
ENCODING 7687
SWIDTH 611 0
DWIDTH 11 0
BBX 11 15 0 -2
BITMAP
F000
3000
3000
3000
3780
38C0
3060
3060
3060
3060
3060
38C0
2780
0000
1F00
ENDCHAR
STARTCHAR uni1E08
ENCODING 7688
SWIDTH 695 0
DWIDTH 12 0
BBX 10 20 1 -3
BITMAP
0300
0400
0800
0000
1F80
30C0
6040
E040
C000
C000
C000
C000
C000
6000
6000
3040
1F80
0400
0600
0E00
ENDCHAR
STARTCHAR uni1E09
ENCODING 7689
SWIDTH 509 0
DWIDTH 9 0
BBX 7 16 1 -3
BITMAP
0C
10
20
00
3E
62
C2
C0
C0
C0
C0
60
3E
10
18
38
ENDCHAR
STARTCHAR uni1E0A
ENCODING 7690
SWIDTH 768 0
DWIDTH 14 0
BBX 13 16 0 0
BITMAP
0600
0600
0000
FF80
3060
3030
3018
3018
3018
3018
3018
3018
3010
3030
3060
FF80
ENDCHAR
STARTCHAR uni1E0B
ENCODING 7691
SWIDTH 642 0
DWIDTH 12 0
BBX 11 16 1 0
BITMAP
0300
0300
0000
0780
0180
0180
0180
3D80
6380
C180
C180
C180
C180
C180
6380
3DE0
ENDCHAR
STARTCHAR uni1E0C
ENCODING 7692
SWIDTH 768 0
DWIDTH 14 0
BBX 13 16 0 -3
BITMAP
FF80
3060
3030
3018
3018
3018
3018
3018
3018
3010
3030
3060
FF80
0000
0600
0600
ENDCHAR
STARTCHAR uni1E0D
ENCODING 7693
SWIDTH 642 0
DWIDTH 12 0
BBX 11 16 1 -3
BITMAP
0780
0180
0180
0180
3D80
6380
C180
C180
C180
C180
C180
6380
3DE0
0000
0C00
0C00
ENDCHAR
STARTCHAR uni1E0E
ENCODING 7694
SWIDTH 768 0
DWIDTH 14 0
BBX 13 15 0 -2
BITMAP
FF80
3060
3030
3018
3018
3018
3018
3018
3018
3010
3030
3060
FF80
0000
1F00
ENDCHAR
STARTCHAR uni1E0F
ENCODING 7695
SWIDTH 642 0
DWIDTH 12 0
BBX 11 15 1 -2
BITMAP
0780
0180
0180
0180
3D80
6380
C180
C180
C180
C180
C180
6380
3DE0
0000
1F00
ENDCHAR
STARTCHAR uni1E10
ENCODING 7696
SWIDTH 768 0
DWIDTH 14 0
BBX 13 16 0 -3
BITMAP
FF80
3060
3030
3018
3018
3018
3018
3018
3018
3010
3030
3060
FF80
0600
0300
0700
ENDCHAR
STARTCHAR uni1E11
ENCODING 7697
SWIDTH 642 0
DWIDTH 12 0
BBX 11 16 1 -3
BITMAP
0780
0180
0180
0180
3D80
6380
C180
C180
C180
C180
C180
6380
3DE0
0C00
0600
0E00
ENDCHAR
STARTCHAR uni1E12
ENCODING 7698
SWIDTH 768 0
DWIDTH 14 0
BBX 13 17 0 -4
BITMAP
FF80
3060
3030
3018
3018
3018
3018
3018
3018
3010
3030
3060
FF80
0000
0600
0900
1080
ENDCHAR
STARTCHAR uni1E13
ENCODING 7699
SWIDTH 642 0
DWIDTH 12 0
BBX 11 17 1 -4
BITMAP
0780
0180
0180
0180
3D80
6380
C180
C180
C180
C180
C180
6380
3DE0
0000
0C00
1200
2100
ENDCHAR
STARTCHAR uni1E14
ENCODING 7700
SWIDTH 566 0
DWIDTH 10 0
BBX 10 19 0 0
BITMAP
3000
0800
0400
0000
3E00
0000
FFC0
3040
3040
3000
3000
3100
3F00
3100
3000
3000
3040
3040
FFC0
ENDCHAR
STARTCHAR uni1E15
ENCODING 7701
SWIDTH 530 0
DWIDTH 10 0
BBX 8 15 1 0
BITMAP
60
10
08
00
7C
00
3C
62
C3
C3
FF
C0
C0
61
3E
ENDCHAR
STARTCHAR uni1E16
ENCODING 7702
SWIDTH 566 0
DWIDTH 10 0
BBX 10 19 0 0
BITMAP
0300
0400
0800
0000
3E00
0000
FFC0
3040
3040
3000
3000
3100
3F00
3100
3000
3000
3040
3040
FFC0
ENDCHAR
STARTCHAR uni1E17
ENCODING 7703
SWIDTH 530 0
DWIDTH 10 0
BBX 8 15 1 0
BITMAP
06
08
10
00
7C
00
3C
62
C3
C3
FF
C0
C0
61
3E
ENDCHAR
STARTCHAR uni1E18
ENCODING 7704
SWIDTH 566 0
DWIDTH 10 0
BBX 10 17 0 -4
BITMAP
FFC0
3040
3040
3000
3000
3100
3F00
3100
3000
3000
3040
3040
FFC0
0000
0C00
1200
2100
ENDCHAR
STARTCHAR uni1E19
ENCODING 7705
SWIDTH 530 0
DWIDTH 10 0
BBX 8 13 1 -4
BITMAP
3C
62
C3
C3
FF
C0
C0
61
3E
00
18
24
42
ENDCHAR
STARTCHAR uni1E1A
ENCODING 7706
SWIDTH 566 0
DWIDTH 10 0
BBX 10 16 0 -3
BITMAP
FFC0
3040
3040
3000
3000
3100
3F00
3100
3000
3000
3040
3040
FFC0
0000
1900
2600
ENDCHAR
STARTCHAR uni1E1B
ENCODING 7707
SWIDTH 530 0
DWIDTH 10 0
BBX 8 12 1 -3
BITMAP
3C
62
C3
C3
FF
C0
C0
61
3E
00
32
4C
ENDCHAR
STARTCHAR uni1E1C
ENCODING 7708
SWIDTH 566 0
DWIDTH 10 0
BBX 10 20 0 -3
BITMAP
2100
1E00
1E00
0000
FFC0
3040
3040
3000
3000
3100
3F00
3100
3000
3000
3040
3040
FFC0
0C00
0600
0E00
ENDCHAR
STARTCHAR uni1E1D
ENCODING 7709
SWIDTH 530 0
DWIDTH 10 0
BBX 8 16 1 -3
BITMAP
42
3C
3C
00
3C
62
C3
C3
FF
C0
C0
61
3E
18
0C
1C
ENDCHAR
STARTCHAR uni1E1E
ENCODING 7710
SWIDTH 548 0
DWIDTH 10 0
BBX 9 16 0 0
BITMAP
1800
1800
0000
FF80
3080
3080
3000
3000
3100
3F00
3100
3000
3000
3000
3000
F800
ENDCHAR
STARTCHAR uni1E1F
ENCODING 7711
SWIDTH 404 0
DWIDTH 7 0
BBX 7 17 1 0
BITMAP
18
18
00
1E
32
32
30
30
FC
30
30
30
30
30
30
30
F8
ENDCHAR
STARTCHAR uni1E20
ENCODING 7712
SWIDTH 732 0
DWIDTH 13 0
BBX 13 15 1 0
BITMAP
1F00
0000
0FC0
3860
6020
6000
C000
C000
C000
C1F8
C060
6060
6060
3860
0FC0
ENDCHAR
STARTCHAR uni1E21
ENCODING 7713
SWIDTH 571 0
DWIDTH 10 0
BBX 10 14 0 -3
BITMAP
3E00
0000
3FC0
7600
6300
6300
2300
1700
7E00
6000
3F80
C180
C180
7E00
ENDCHAR
STARTCHAR uni1E22
ENCODING 7714
SWIDTH 771 0
DWIDTH 14 0
BBX 14 16 0 0
BITMAP
0300
0300
0000
FCFC
3030
3030
3030
3030
3030
3FF0
3030
3030
3030
3030
3030
FCFC
ENDCHAR
STARTCHAR uni1E23
ENCODING 7715
SWIDTH 633 0
DWIDTH 11 0
BBX 12 16 0 0
BITMAP
1800
1800
0000
F000
3000
3000
3000
3780
38C0
30C0
30C0
30C0
30C0
30C0
30C0
FFF0
ENDCHAR
STARTCHAR uni1E24
ENCODING 7716
SWIDTH 771 0
DWIDTH 14 0
BBX 14 16 0 -3
BITMAP
FCFC
3030
3030
3030
3030
3030
3FF0
3030
3030
3030
3030
3030
FCFC
0000
0300
0300
ENDCHAR
STARTCHAR uni1E25
ENCODING 7717
SWIDTH 633 0
DWIDTH 11 0
BBX 12 16 0 -3
BITMAP
F000
3000
3000
3000
3780
38C0
30C0
30C0
30C0
30C0
30C0
30C0
FFF0
0000
0600
0600
ENDCHAR
STARTCHAR uni1E26
ENCODING 7718
SWIDTH 771 0
DWIDTH 14 0
BBX 14 16 0 0
BITMAP
06C0
06C0
0000
FCFC
3030
3030
3030
3030
3030
3FF0
3030
3030
3030
3030
3030
FCFC
ENDCHAR
STARTCHAR uni1E27
ENCODING 7719
SWIDTH 633 0
DWIDTH 11 0
BBX 12 16 0 0
BITMAP
6C00
6C00
0000
F000
3000
3000
3000
3780
38C0
30C0
30C0
30C0
30C0
30C0
30C0
FFF0
ENDCHAR
STARTCHAR uni1E28
ENCODING 7720
SWIDTH 771 0
DWIDTH 14 0
BBX 14 16 0 -3
BITMAP
FCFC
3030
3030
3030
3030
3030
3FF0
3030
3030
3030
3030
3030
FCFC
0300
0180
0380
ENDCHAR
STARTCHAR uni1E29
ENCODING 7721
SWIDTH 633 0
DWIDTH 11 0
BBX 12 16 0 -3
BITMAP
F000
3000
3000
3000
3780
38C0
30C0
30C0
30C0
30C0
30C0
30C0
FFF0
0600
0300
0700
ENDCHAR
STARTCHAR uni1E2A
ENCODING 7722
SWIDTH 771 0
DWIDTH 14 0
BBX 14 17 0 -4
BITMAP
FCFC
3030
3030
3030
3030
3030
3FF0
3030
3030
3030
3030
3030
FCFC
0000
0840
0780
0780
ENDCHAR
STARTCHAR uni1E2B
ENCODING 7723
SWIDTH 633 0
DWIDTH 11 0
BBX 12 17 0 -4
BITMAP
F000
3000
3000
3000
3780
38C0
30C0
30C0
30C0
30C0
30C0
30C0
FFF0
0000
1080
0F00
0F00
ENDCHAR
STARTCHAR uni1E2C
ENCODING 7724
SWIDTH 325 0
DWIDTH 6 0
BBX 6 16 0 -3
BITMAP
FC
30
30
30
30
30
30
30
30
30
30
30
FC
00
64
98
ENDCHAR
STARTCHAR uni1E2D
ENCODING 7725
SWIDTH 307 0
DWIDTH 6 0
BBX 6 16 0 -3
BITMAP
30
30
00
00
F0
30
30
30
30
30
30
30
FC
00
64
98
ENDCHAR
STARTCHAR uni1E2E
ENCODING 7726
SWIDTH 325 0
DWIDTH 6 0
BBX 6 20 0 0
BITMAP
0C
10
20
00
D8
D8
00
FC
30
30
30
30
30
30
30
30
30
30
30
FC
ENDCHAR
STARTCHAR uni1E2F
ENCODING 7727
SWIDTH 307 0
DWIDTH 6 0
BBX 6 16 0 0
BITMAP
0C
10
20
00
D8
D8
00
F0
30
30
30
30
30
30
30
FC
ENDCHAR
STARTCHAR uni1E30
ENCODING 7728
SWIDTH 708 0
DWIDTH 13 0
BBX 12 17 1 0
BITMAP
0180
0200
0400
0000
FCE0
30C0
3180
3300
3600
3400
3C00
3600
3700
3380
31C0
30E0
F9F0
ENDCHAR
STARTCHAR uni1E31
ENCODING 7729
SWIDTH 599 0
DWIDTH 11 0
BBX 10 17 1 0
BITMAP
0C00
1000
2000
0000
F000
3000
3000
3000
3180
3100
3200
3400
3C00
3600
3700
3380
F9C0
ENDCHAR
STARTCHAR uni1E32
ENCODING 7730
SWIDTH 708 0
DWIDTH 13 0
BBX 12 16 1 -3
BITMAP
FCE0
30C0
3180
3300
3600
3400
3C00
3600
3700
3380
31C0
30E0
F9F0
0000
0600
0600
ENDCHAR
STARTCHAR uni1E33
ENCODING 7731
SWIDTH 599 0
DWIDTH 11 0
BBX 10 16 1 -3
BITMAP
F000
3000
3000
3000
3180
3100
3200
3400
3C00
3600
3700
3380
F9C0
0000
0C00
0C00
ENDCHAR
STARTCHAR uni1E34
ENCODING 7732
SWIDTH 708 0
DWIDTH 13 0
BBX 12 15 1 -2
BITMAP
FCE0
30C0
3180
3300
3600
3400
3C00
3600
3700
3380
31C0
30E0
F9F0
0000
0F80
ENDCHAR
STARTCHAR uni1E35
ENCODING 7733
SWIDTH 599 0
DWIDTH 11 0
BBX 10 15 1 -2
BITMAP
F000
3000
3000
3000
3180
3100
3200
3400
3C00
3600
3700
3380
F9C0
0000
1F00
ENDCHAR
STARTCHAR uni1E36
ENCODING 7734
SWIDTH 557 0
DWIDTH 10 0
BBX 10 16 0 -3
BITMAP
FC00
3000
3000
3000
3000
3000
3000
3000
3000
3000
3040
3040
FFC0
0000
0C00
0C00
ENDCHAR
STARTCHAR uni1E37
ENCODING 7735
SWIDTH 313 0
DWIDTH 6 0
BBX 6 16 0 -3
BITMAP
F0
30
30
30
30
30
30
30
30
30
30
30
FC
00
30
30
ENDCHAR
STARTCHAR uni1E38
ENCODING 7736
SWIDTH 557 0
DWIDTH 10 0
BBX 10 18 0 -3
BITMAP
7C00
0000
FC00
3000
3000
3000
3000
3000
3000
3000
3000
3000
3040
3040
FFC0
0000
0C00
0C00
ENDCHAR
STARTCHAR uni1E39
ENCODING 7737
SWIDTH 313 0
DWIDTH 6 0
BBX 6 18 0 -3
BITMAP
F8
00
F0
30
30
30
30
30
30
30
30
30
30
30
FC
00
30
30
ENDCHAR
STARTCHAR uni1E3A
ENCODING 7738
SWIDTH 557 0
DWIDTH 10 0
BBX 10 15 0 -2
BITMAP
FC00
3000
3000
3000
3000
3000
3000
3000
3000
3000
3040
3040
FFC0
0000
3E00
ENDCHAR
STARTCHAR uni1E3B
ENCODING 7739
SWIDTH 313 0
DWIDTH 6 0
BBX 6 15 0 -2
BITMAP
F0
30
30
30
30
30
30
30
30
30
30
30
FC
00
7C
ENDCHAR
STARTCHAR uni1E3C
ENCODING 7740
SWIDTH 557 0
DWIDTH 10 0
BBX 10 17 0 -4
BITMAP
FC00
3000
3000
3000
3000
3000
3000
3000
3000
3000
3040
3040
FFC0
0000
0C00
1200
2100
ENDCHAR
STARTCHAR uni1E3D
ENCODING 7741
SWIDTH 313 0
DWIDTH 6 0
BBX 6 17 0 -4
BITMAP
F0
30
30
30
30
30
30
30
30
30
30
30
FC
00
30
48
84
ENDCHAR
STARTCHAR uni1E3E
ENCODING 7742
SWIDTH 860 0
DWIDTH 15 0
BBX 15 17 0 0
BITMAP
00C0
0100
0200
0000
F01E
3818
3838
3838
2C58
2C58
2658
2698
2798
2318
2318
2318
F87E
ENDCHAR
STARTCHAR uni1E3F
ENCODING 7743
SWIDTH 946 0
DWIDTH 17 0
BBX 18 13 0 0
BITMAP
006000
008000
010000
000000
F79E00
38E300
30C300
30C300
30C300
30C300
30C300
30C300
FFFFC0
ENDCHAR
STARTCHAR uni1E40
ENCODING 7744
SWIDTH 860 0
DWIDTH 15 0
BBX 15 16 0 0
BITMAP
0300
0300
0000
F01E
3818
3838
3838
2C58
2C58
2658
2698
2798
2318
2318
2318
F87E
ENDCHAR
STARTCHAR uni1E41
ENCODING 7745
SWIDTH 946 0
DWIDTH 17 0
BBX 18 12 0 0
BITMAP
018000
018000
000000
F79E00
38E300
30C300
30C300
30C300
30C300
30C300
30C300
FFFFC0
ENDCHAR
STARTCHAR uni1E42
ENCODING 7746
SWIDTH 860 0
DWIDTH 15 0
BBX 15 16 0 -3
BITMAP
F01E
3818
3838
3838
2C58
2C58
2658
2698
2798
2318
2318
2318
F87E
0000
0180
0180
ENDCHAR
STARTCHAR uni1E43
ENCODING 7747
SWIDTH 946 0
DWIDTH 17 0
BBX 18 12 0 -3
BITMAP
F79E00
38E300
30C300
30C300
30C300
30C300
30C300
30C300
FFFFC0
000000
00C000
00C000
ENDCHAR
STARTCHAR uni1E44
ENCODING 7748
SWIDTH 751 0
DWIDTH 14 0
BBX 14 16 0 0
BITMAP
0300
0300
0000
F07C
3010
3810
2C10
2E10
2710
2390
2190
20D0
20F0
2070
2030
F810
ENDCHAR
STARTCHAR uni1E45
ENCODING 7749
SWIDTH 633 0
DWIDTH 11 0
BBX 12 12 0 0
BITMAP
0C00
0C00
0000
F780
38C0
30C0
30C0
30C0
30C0
30C0
30C0
FFF0
ENDCHAR
STARTCHAR uni1E46
ENCODING 7750
SWIDTH 751 0
DWIDTH 14 0
BBX 14 16 0 -3
BITMAP
F07C
3010
3810
2C10
2E10
2710
2390
2190
20D0
20F0
2070
2030
F810
0000
0300
0300
ENDCHAR
STARTCHAR uni1E47
ENCODING 7751
SWIDTH 633 0
DWIDTH 11 0
BBX 12 12 0 -3
BITMAP
F780
38C0
30C0
30C0
30C0
30C0
30C0
30C0
FFF0
0000
0600
0600
ENDCHAR
STARTCHAR uni1E48
ENCODING 7752
SWIDTH 751 0
DWIDTH 14 0
BBX 14 15 0 -2
BITMAP
F07C
3010
3810
2C10
2E10
2710
2390
2190
20D0
20F0
2070
2030
F810
0000
0F80
ENDCHAR
STARTCHAR uni1E49
ENCODING 7753
SWIDTH 633 0
DWIDTH 11 0
BBX 12 11 0 -2
BITMAP
F780
38C0
30C0
30C0
30C0
30C0
30C0
30C0
FFF0
0000
0F80
ENDCHAR
STARTCHAR uni1E4A
ENCODING 7754
SWIDTH 751 0
DWIDTH 14 0
BBX 14 17 0 -4
BITMAP
F07C
3010
3810
2C10
2E10
2710
2390
2190
20D0
20F0
2070
2030
F810
0000
0300
0480
0840
ENDCHAR
STARTCHAR uni1E4B
ENCODING 7755
SWIDTH 633 0
DWIDTH 11 0
BBX 12 13 0 -4
BITMAP
F780
38C0
30C0
30C0
30C0
30C0
30C0
30C0
FFF0
0000
0600
0900
1080
ENDCHAR
STARTCHAR uni1E4C
ENCODING 7756
SWIDTH 777 0
DWIDTH 14 0
BBX 12 20 1 0
BITMAP
0180
0200
0400
0000
0C80
1300
0000
1F80
30C0
6060
6060
C030
C030
C030
C030
C030
6060
6060
30C0
1F80
ENDCHAR
STARTCHAR uni1E4D
ENCODING 7757
SWIDTH 602 0
DWIDTH 11 0
BBX 9 16 1 0
BITMAP
0600
0800
1000
0000
3200
4C00
0000
3E00
6300
C180
C180
C180
C180
C180
6300
3E00
ENDCHAR
STARTCHAR uni1E4E
ENCODING 7758
SWIDTH 777 0
DWIDTH 14 0
BBX 12 19 1 0
BITMAP
0D80
0D80
0000
0C80
1300
0000
1F80
30C0
6060
6060
C030
C030
C030
C030
C030
6060
6060
30C0
1F80
ENDCHAR
STARTCHAR uni1E4F
ENCODING 7759
SWIDTH 602 0
DWIDTH 11 0
BBX 9 15 1 0
BITMAP
3600
3600
0000
3200
4C00
0000
3E00
6300
C180
C180
C180
C180
C180
6300
3E00
ENDCHAR
STARTCHAR uni1E50
ENCODING 7760
SWIDTH 777 0
DWIDTH 14 0
BBX 12 19 1 0
BITMAP
1800
0400
0200
0000
0F80
0000
1F80
30C0
6060
6060
C030
C030
C030
C030
C030
6060
6060
30C0
1F80
ENDCHAR
STARTCHAR uni1E51
ENCODING 7761
SWIDTH 602 0
DWIDTH 11 0
BBX 9 15 1 0
BITMAP
3000
0800
0400
0000
3E00
0000
3E00
6300
C180
C180
C180
C180
C180
6300
3E00
ENDCHAR
STARTCHAR uni1E52
ENCODING 7762
SWIDTH 777 0
DWIDTH 14 0
BBX 12 19 1 0
BITMAP
0180
0200
0400
0000
0F80
0000
1F80
30C0
6060
6060
C030
C030
C030
C030
C030
6060
6060
30C0
1F80
ENDCHAR
STARTCHAR uni1E53
ENCODING 7763
SWIDTH 602 0
DWIDTH 11 0
BBX 9 15 1 0
BITMAP
0300
0400
0800
0000
3E00
0000
3E00
6300
C180
C180
C180
C180
C180
6300
3E00
ENDCHAR
STARTCHAR uni1E54
ENCODING 7764
SWIDTH 573 0
DWIDTH 10 0
BBX 10 17 0 0
BITMAP
0300
0400
0800
0000
FF00
3180
30C0
30C0
30C0
30C0
3380
3F00
3000
3000
3000
3000
FC00
ENDCHAR
STARTCHAR uni1E55
ENCODING 7765
SWIDTH 642 0
DWIDTH 12 0
BBX 11 16 0 -3
BITMAP
0180
0200
0400
0000
F780
38C0
3060
3060
3060
3060
3060
38C0
3780
3000
3000
FC00
ENDCHAR
STARTCHAR uni1E56
ENCODING 7766
SWIDTH 573 0
DWIDTH 10 0
BBX 10 16 0 0
BITMAP
0C00
0C00
0000
FF00
3180
30C0
30C0
30C0
30C0
3380
3F00
3000
3000
3000
3000
FC00
ENDCHAR
STARTCHAR uni1E57
ENCODING 7767
SWIDTH 642 0
DWIDTH 12 0
BBX 11 15 0 -3
BITMAP
0600
0600
0000
F780
38C0
3060
3060
3060
3060
3060
38C0
3780
3000
3000
FC00
ENDCHAR
STARTCHAR uni1E58
ENCODING 7768
SWIDTH 679 0
DWIDTH 12 0
BBX 12 16 0 0
BITMAP
0C00
0C00
0000
FF00
3180
30C0
30C0
30C0
3180
3F00
3300
3300
3180
31C0
30E0
F870
ENDCHAR
STARTCHAR uni1E59
ENCODING 7769
SWIDTH 440 0
DWIDTH 8 0
BBX 8 12 0 0
BITMAP
18
18
00
F7
39
31
30
30
30
30
30
FC
ENDCHAR
STARTCHAR uni1E5A
ENCODING 7770
SWIDTH 679 0
DWIDTH 12 0
BBX 12 16 0 -3
BITMAP
FF00
3180
30C0
30C0
30C0
3180
3F00
3300
3300
3180
31C0
30E0
F870
0000
0600
0600
ENDCHAR
STARTCHAR uni1E5B
ENCODING 7771
SWIDTH 440 0
DWIDTH 8 0
BBX 8 12 0 -3
BITMAP
F7
39
31
30
30
30
30
30
FC
00
30
30
ENDCHAR
STARTCHAR uni1E5C
ENCODING 7772
SWIDTH 679 0
DWIDTH 12 0
BBX 12 18 0 -3
BITMAP
1F00
0000
FF00
3180
30C0
30C0
30C0
3180
3F00
3300
3300
3180
31C0
30E0
F870
0000
0600
0600
ENDCHAR
STARTCHAR uni1E5D
ENCODING 7773
SWIDTH 440 0
DWIDTH 8 0
BBX 8 14 0 -3
BITMAP
3E
00
F7
39
31
30
30
30
30
30
FC
00
30
30
ENDCHAR
STARTCHAR uni1E5E
ENCODING 7774
SWIDTH 679 0
DWIDTH 12 0
BBX 12 15 0 -2
BITMAP
FF00
3180
30C0
30C0
30C0
3180
3F00
3300
3300
3180
31C0
30E0
F870
0000
0F80
ENDCHAR
STARTCHAR uni1E5F
ENCODING 7775
SWIDTH 440 0
DWIDTH 8 0
BBX 8 11 0 -2
BITMAP
F7
39
31
30
30
30
30
30
FC
00
7C
ENDCHAR
STARTCHAR uni1E60
ENCODING 7776
SWIDTH 542 0
DWIDTH 10 0
BBX 8 16 1 0
BITMAP
18
18
00
3E
62
C2
C0
E0
78
3C
0E
03
03
83
86
FC
ENDCHAR
STARTCHAR uni1E61
ENCODING 7777
SWIDTH 504 0
DWIDTH 9 0
BBX 7 12 1 0
BITMAP
30
30
00
7C
C4
C4
F0
7C
9E
86
C6
7C
ENDCHAR
STARTCHAR uni1E62
ENCODING 7778
SWIDTH 542 0
DWIDTH 10 0
BBX 8 16 1 -3
BITMAP
3E
62
C2
C0
E0
78
3C
0E
03
03
83
86
FC
00
18
18
ENDCHAR
STARTCHAR uni1E63
ENCODING 7779
SWIDTH 504 0
DWIDTH 9 0
BBX 7 12 1 -3
BITMAP
7C
C4
C4
F0
7C
9E
86
C6
7C
00
18
18
ENDCHAR
STARTCHAR uni1E64
ENCODING 7780
SWIDTH 542 0
DWIDTH 10 0
BBX 8 20 1 0
BITMAP
18
18
00
06
08
10
00
3E
62
C2
C0
E0
78
3C
0E
03
03
83
86
FC
ENDCHAR
STARTCHAR uni1E65
ENCODING 7781
SWIDTH 504 0
DWIDTH 9 0
BBX 7 16 1 0
BITMAP
18
18
00
0C
10
20
00
7C
C4
C4
F0
7C
9E
86
C6
7C
ENDCHAR
STARTCHAR uni1E66
ENCODING 7782
SWIDTH 542 0
DWIDTH 10 0
BBX 8 20 1 0
BITMAP
18
18
00
42
24
18
00
3E
62
C2
C0
E0
78
3C
0E
03
03
83
86
FC
ENDCHAR
STARTCHAR uni1E67
ENCODING 7783
SWIDTH 504 0
DWIDTH 9 0
BBX 7 16 1 0
BITMAP
30
30
00
84
48
30
00
7C
C4
C4
F0
7C
9E
86
C6
7C
ENDCHAR
STARTCHAR uni1E68
ENCODING 7784
SWIDTH 542 0
DWIDTH 10 0
BBX 8 19 1 -3
BITMAP
30
30
00
3E
62
C2
C0
E0
78
3C
0E
03
03
83
86
FC
00
18
18
ENDCHAR
STARTCHAR uni1E69
ENCODING 7785
SWIDTH 504 0
DWIDTH 9 0
BBX 7 15 1 -3
BITMAP
30
30
00
7C
C4
C4
F0
7C
9E
86
C6
7C
00
18
18
ENDCHAR
STARTCHAR uni1E6A
ENCODING 7786
SWIDTH 663 0
DWIDTH 12 0
BBX 12 16 0 0
BITMAP
0600
0600
0000
FFF0
8610
0600
0600
0600
0600
0600
0600
0600
0600
0600
0600
1F80
ENDCHAR
STARTCHAR uni1E6B
ENCODING 7787
SWIDTH 392 0
DWIDTH 7 0
BBX 6 15 1 0
BITMAP
30
30
00
60
60
60
FC
60
60
60
60
60
60
60
3C
ENDCHAR
STARTCHAR uni1E6C
ENCODING 7788
SWIDTH 663 0
DWIDTH 12 0
BBX 12 16 0 -3
BITMAP
FFF0
8610
0600
0600
0600
0600
0600
0600
0600
0600
0600
0600
1F80
0000
0600
0600
ENDCHAR
STARTCHAR uni1E6D
ENCODING 7789
SWIDTH 392 0
DWIDTH 7 0
BBX 6 15 1 -3
BITMAP
60
60
60
FC
60
60
60
60
60
60
60
3C
00
30
30
ENDCHAR
STARTCHAR uni1E6E
ENCODING 7790
SWIDTH 663 0
DWIDTH 12 0
BBX 12 15 0 -2
BITMAP
FFF0
8610
0600
0600
0600
0600
0600
0600
0600
0600
0600
0600
1F80
0000
0F80
ENDCHAR
STARTCHAR uni1E6F
ENCODING 7791
SWIDTH 392 0
DWIDTH 7 0
BBX 6 14 1 -2
BITMAP
60
60
60
FC
60
60
60
60
60
60
60
3C
00
F8
ENDCHAR
STARTCHAR uni1E70
ENCODING 7792
SWIDTH 663 0
DWIDTH 12 0
BBX 12 17 0 -4
BITMAP
FFF0
8610
0600
0600
0600
0600
0600
0600
0600
0600
0600
0600
1F80
0000
0600
0900
1080
ENDCHAR
STARTCHAR uni1E71
ENCODING 7793
SWIDTH 392 0
DWIDTH 7 0
BBX 6 16 1 -4
BITMAP
60
60
60
FC
60
60
60
60
60
60
60
3C
00
30
48
84
ENDCHAR
STARTCHAR uni1E72
ENCODING 7794
SWIDTH 719 0
DWIDTH 13 0
BBX 13 16 0 -3
BITMAP
FCF8
3020
3020
3020
3020
3020
3020
3020
3020
3020
3020
1840
0F80
0000
0D80
0D80
ENDCHAR
STARTCHAR uni1E73
ENCODING 7795
SWIDTH 633 0
DWIDTH 11 0
BBX 12 12 0 -3
BITMAP
F3C0
30C0
30C0
30C0
30C0
30C0
30C0
31C0
1EF0
0000
0D80
0D80
ENDCHAR
STARTCHAR uni1E74
ENCODING 7796
SWIDTH 719 0
DWIDTH 13 0
BBX 13 16 0 -3
BITMAP
FCF8
3020
3020
3020
3020
3020
3020
3020
3020
3020
3020
1840
0F80
0000
0C80
1300
ENDCHAR
STARTCHAR uni1E75
ENCODING 7797
SWIDTH 633 0
DWIDTH 11 0
BBX 12 12 0 -3
BITMAP
F3C0
30C0
30C0
30C0
30C0
30C0
30C0
31C0
1EF0
0000
0C80
1300
ENDCHAR
STARTCHAR uni1E76
ENCODING 7798
SWIDTH 719 0
DWIDTH 13 0
BBX 13 17 0 -4
BITMAP
FCF8
3020
3020
3020
3020
3020
3020
3020
3020
3020
3020
1840
0F80
0000
0600
0900
1080
ENDCHAR
STARTCHAR uni1E77
ENCODING 7799
SWIDTH 633 0
DWIDTH 11 0
BBX 12 13 0 -4
BITMAP
F3C0
30C0
30C0
30C0
30C0
30C0
30C0
31C0
1EF0
0000
0300
0480
0840
ENDCHAR
STARTCHAR uni1E78
ENCODING 7800
SWIDTH 719 0
DWIDTH 13 0
BBX 13 20 0 0
BITMAP
0180
0200
0400
0000
0C80
1300
0000
FCF8
3020
3020
3020
3020
3020
3020
3020
3020
3020
3020
1840
0F80
ENDCHAR
STARTCHAR uni1E79
ENCODING 7801
SWIDTH 633 0
DWIDTH 11 0
BBX 12 16 0 0
BITMAP
0180
0200
0400
0000
0C80
1300
0000
F3C0
30C0
30C0
30C0
30C0
30C0
30C0
31C0
1EF0
ENDCHAR
STARTCHAR uni1E7A
ENCODING 7802
SWIDTH 719 0
DWIDTH 13 0
BBX 13 18 0 0
BITMAP
0D80
0D80
0000
0F80
0000
FCF8
3020
3020
3020
3020
3020
3020
3020
3020
3020
3020
1840
0F80
ENDCHAR
STARTCHAR uni1E7B
ENCODING 7803
SWIDTH 633 0
DWIDTH 11 0
BBX 12 14 0 0
BITMAP
1B00
1B00
0000
1F00
0000
F3C0
30C0
30C0
30C0
30C0
30C0
30C0
31C0
1EF0
ENDCHAR
STARTCHAR uni1E7C
ENCODING 7804
SWIDTH 699 0
DWIDTH 13 0
BBX 13 16 0 0
BITMAP
0C80
1300
0000
F838
6010
3030
3020
1820
1840
1C40
0C80
0C80
0680
0700
0300
0200
ENDCHAR
STARTCHAR uni1E7D
ENCODING 7805
SWIDTH 545 0
DWIDTH 10 0
BBX 10 12 0 0
BITMAP
1900
2600
0000
F1C0
6080
6080
3100
3100
1A00
1E00
0C00
0C00
ENDCHAR
STARTCHAR uni1E7E
ENCODING 7806
SWIDTH 699 0
DWIDTH 13 0
BBX 13 16 0 -3
BITMAP
F838
6010
3030
3020
1820
1840
1C40
0C80
0C80
0680
0700
0300
0200
0000
0300
0300
ENDCHAR
STARTCHAR uni1E7F
ENCODING 7807
SWIDTH 545 0
DWIDTH 10 0
BBX 10 12 0 -3
BITMAP
F1C0
6080
6080
3100
3100
1A00
1E00
0C00
0C00
0000
0C00
0C00
ENDCHAR
STARTCHAR Wgrave
ENCODING 7808
SWIDTH 925 0
DWIDTH 17 0
BBX 17 17 0 0
BITMAP
060000
010000
008000
000000
F88780
60C100
70C200
31C200
31E200
316400
1A6400
1A6400
1A3C00
1C3800
0C3800
0C1800
081000
ENDCHAR
STARTCHAR wgrave
ENCODING 7809
SWIDTH 795 0
DWIDTH 14 0
BBX 14 13 0 0
BITMAP
0C00
0200
0100
0000
F11C
6308
6388
7398
35D0
34D0
38E0
1860
1060
ENDCHAR
STARTCHAR Wacute
ENCODING 7810
SWIDTH 925 0
DWIDTH 17 0
BBX 17 17 0 0
BITMAP
006000
008000
010000
000000
F88780
60C100
70C200
31C200
31E200
316400
1A6400
1A6400
1A3C00
1C3800
0C3800
0C1800
081000
ENDCHAR
STARTCHAR wacute
ENCODING 7811
SWIDTH 795 0
DWIDTH 14 0
BBX 14 13 0 0
BITMAP
00C0
0100
0200
0000
F11C
6308
6388
7398
35D0
34D0
38E0
1860
1060
ENDCHAR
STARTCHAR Wdieresis
ENCODING 7812
SWIDTH 925 0
DWIDTH 17 0
BBX 17 16 0 0
BITMAP
06C000
06C000
000000
F88780
60C100
70C200
31C200
31E200
316400
1A6400
1A6400
1A3C00
1C3800
0C3800
0C1800
081000
ENDCHAR
STARTCHAR wdieresis
ENCODING 7813
SWIDTH 795 0
DWIDTH 14 0
BBX 14 12 0 0
BITMAP
0D80
0D80
0000
F11C
6308
6388
7398
35D0
34D0
38E0
1860
1060
ENDCHAR
STARTCHAR uni1E86
ENCODING 7814
SWIDTH 925 0
DWIDTH 17 0
BBX 17 16 0 0
BITMAP
018000
018000
000000
F88780
60C100
70C200
31C200
31E200
316400
1A6400
1A6400
1A3C00
1C3800
0C3800
0C1800
081000
ENDCHAR
STARTCHAR uni1E87
ENCODING 7815
SWIDTH 795 0
DWIDTH 14 0
BBX 14 12 0 0
BITMAP
0300
0300
0000
F11C
6308
6388
7398
35D0
34D0
38E0
1860
1060
ENDCHAR
STARTCHAR uni1E88
ENCODING 7816
SWIDTH 925 0
DWIDTH 17 0
BBX 17 16 0 -3
BITMAP
F88780
60C100
70C200
31C200
31E200
316400
1A6400
1A6400
1A3C00
1C3800
0C3800
0C1800
081000
000000
018000
018000
ENDCHAR
STARTCHAR uni1E89
ENCODING 7817
SWIDTH 795 0
DWIDTH 14 0
BBX 14 12 0 -3
BITMAP
F11C
6308
6388
7398
35D0
34D0
38E0
1860
1060
0000
0300
0300
ENDCHAR
STARTCHAR uni1E8A
ENCODING 7818
SWIDTH 657 0
DWIDTH 12 0
BBX 12 16 0 0
BITMAP
0600
0600
0000
F8F0
7060
3840
1880
0D00
0F00
0700
0B00
1B80
1180
20C0
40E0
F1F0
ENDCHAR
STARTCHAR uni1E8B
ENCODING 7819
SWIDTH 557 0
DWIDTH 10 0
BBX 10 12 0 0
BITMAP
0C00
0C00
0000
F1C0
7180
3300
1A00
0C00
1600
2700
4380
E3C0
ENDCHAR
STARTCHAR uni1E8C
ENCODING 7820
SWIDTH 657 0
DWIDTH 12 0
BBX 12 16 0 0
BITMAP
1B00
1B00
0000
F8F0
7060
3840
1880
0D00
0F00
0700
0B00
1B80
1180
20C0
40E0
F1F0
ENDCHAR
STARTCHAR uni1E8D
ENCODING 7821
SWIDTH 557 0
DWIDTH 10 0
BBX 10 12 0 0
BITMAP
3600
3600
0000
F1C0
7180
3300
1A00
0C00
1600
2700
4380
E3C0
ENDCHAR
STARTCHAR uni1E8E
ENCODING 7822
SWIDTH 678 0
DWIDTH 12 0
BBX 12 16 0 0
BITMAP
0600
0600
0000
F870
7020
3040
38C0
1C80
0D00
0F00
0600
0600
0600
0600
0600
1F80
ENDCHAR
STARTCHAR uni1E8F
ENCODING 7823
SWIDTH 551 0
DWIDTH 10 0
BBX 10 15 0 -3
BITMAP
0C00
0C00
0000
F1C0
6080
7080
3100
3900
1A00
1E00
0C00
0C00
0800
1800
7000
ENDCHAR
STARTCHAR uni1E90
ENCODING 7824
SWIDTH 633 0
DWIDTH 11 0
BBX 9 17 1 0
BITMAP
0C00
1200
2100
0000
FF80
8380
8300
0600
0E00
0C00
1C00
1800
3000
7000
6080
C080
FF80
ENDCHAR
STARTCHAR uni1E91
ENCODING 7825
SWIDTH 595 0
DWIDTH 11 0
BBX 8 13 1 0
BITMAP
18
24
42
00
FF
86
8E
1C
18
30
71
E1
FF
ENDCHAR
STARTCHAR uni1E92
ENCODING 7826
SWIDTH 633 0
DWIDTH 11 0
BBX 9 16 1 -3
BITMAP
FF80
8380
8300
0600
0E00
0C00
1C00
1800
3000
7000
6080
C080
FF80
0000
1800
1800
ENDCHAR
STARTCHAR uni1E93
ENCODING 7827
SWIDTH 595 0
DWIDTH 11 0
BBX 8 12 1 -3
BITMAP
FF
86
8E
1C
18
30
71
E1
FF
00
18
18
ENDCHAR
STARTCHAR uni1E94
ENCODING 7828
SWIDTH 633 0
DWIDTH 11 0
BBX 9 15 1 -2
BITMAP
FF80
8380
8300
0600
0E00
0C00
1C00
1800
3000
7000
6080
C080
FF80
0000
3E00
ENDCHAR
STARTCHAR uni1E95
ENCODING 7829
SWIDTH 595 0
DWIDTH 11 0
BBX 8 11 1 -2
BITMAP
FF
86
8E
1C
18
30
71
E1
FF
00
7C
ENDCHAR
STARTCHAR uni1E96
ENCODING 7830
SWIDTH 633 0
DWIDTH 11 0
BBX 12 15 0 -2
BITMAP
F000
3000
3000
3000
3780
38C0
30C0
30C0
30C0
30C0
30C0
30C0
FFF0
0000
0F80
ENDCHAR
STARTCHAR uni1E97
ENCODING 7831
SWIDTH 392 0
DWIDTH 7 0
BBX 6 15 1 0
BITMAP
D8
D8
00
60
60
60
FC
60
60
60
60
60
60
60
3C
ENDCHAR
STARTCHAR uni1E98
ENCODING 7832
SWIDTH 795 0
DWIDTH 14 0
BBX 14 13 0 0
BITMAP
0700
0500
0700
0000
F11C
6308
6388
7398
35D0
34D0
38E0
1860
1060
ENDCHAR
STARTCHAR uni1E99
ENCODING 7833
SWIDTH 551 0
DWIDTH 10 0
BBX 10 16 0 -3
BITMAP
1C00
1400
1C00
0000
F1C0
6080
7080
3100
3900
1A00
1E00
0C00
0C00
0800
1800
7000
ENDCHAR
STARTCHAR uni1EA0
ENCODING 7840
SWIDTH 744 0
DWIDTH 13 0
BBX 13 16 0 -3
BITMAP
0200
0600
0700
0700
0980
0980
11C0
10C0
3FC0
2060
2060
4030
E0F8
0000
0300
0300
ENDCHAR
STARTCHAR uni1EA1
ENCODING 7841
SWIDTH 543 0
DWIDTH 10 0
BBX 8 12 1 -3
BITMAP
7C
46
46
06
3E
E6
C6
C6
7B
00
18
18
ENDCHAR
STARTCHAR uni1EA4
ENCODING 7844
SWIDTH 744 0
DWIDTH 13 0
BBX 13 21 0 0
BITMAP
0180
0200
0400
0000
0600
0900
1080
0000
0200
0600
0700
0700
0980
0980
11C0
10C0
3FC0
2060
2060
4030
E0F8
ENDCHAR
STARTCHAR uni1EA5
ENCODING 7845
SWIDTH 543 0
DWIDTH 10 0
BBX 8 17 1 0
BITMAP
06
08
10
00
18
24
42
00
7C
46
46
06
3E
E6
C6
C6
7B
ENDCHAR
STARTCHAR uni1EA6
ENCODING 7846
SWIDTH 744 0
DWIDTH 13 0
BBX 13 21 0 0
BITMAP
1800
0400
0200
0000
0600
0900
1080
0000
0200
0600
0700
0700
0980
0980
11C0
10C0
3FC0
2060
2060
4030
E0F8
ENDCHAR
STARTCHAR uni1EA7
ENCODING 7847
SWIDTH 543 0
DWIDTH 10 0
BBX 8 17 1 0
BITMAP
60
10
08
00
18
24
42
00
7C
46
46
06
3E
E6
C6
C6
7B
ENDCHAR
STARTCHAR uni1EAA
ENCODING 7850
SWIDTH 744 0
DWIDTH 13 0
BBX 13 20 0 0
BITMAP
0C80
1300
0000
0600
0900
1080
0000
0200
0600
0700
0700
0980
0980
11C0
10C0
3FC0
2060
2060
4030
E0F8
ENDCHAR
STARTCHAR uni1EAB
ENCODING 7851
SWIDTH 543 0
DWIDTH 10 0
BBX 8 16 1 0
BITMAP
32
4C
00
18
24
42
00
7C
46
46
06
3E
E6
C6
C6
7B
ENDCHAR
STARTCHAR uni1EAC
ENCODING 7852
SWIDTH 744 0
DWIDTH 13 0
BBX 13 20 0 -3
BITMAP
0300
0480
0840
0000
0200
0600
0700
0700
0980
0980
11C0
10C0
3FC0
2060
2060
4030
E0F8
0000
0300
0300
ENDCHAR
STARTCHAR uni1EAD
ENCODING 7853
SWIDTH 543 0
DWIDTH 10 0
BBX 8 16 1 -3
BITMAP
18
24
42
00
7C
46
46
06
3E
E6
C6
C6
7B
00
18
18
ENDCHAR
STARTCHAR uni1EAE
ENCODING 7854
SWIDTH 744 0
DWIDTH 13 0
BBX 13 21 0 0
BITMAP
0180
0200
0400
0000
1080
0F00
0F00
0000
0200
0600
0700
0700
0980
0980
11C0
10C0
3FC0
2060
2060
4030
E0F8
ENDCHAR
STARTCHAR uni1EAF
ENCODING 7855
SWIDTH 543 0
DWIDTH 10 0
BBX 8 17 1 0
BITMAP
06
08
10
00
42
3C
3C
00
7C
46
46
06
3E
E6
C6
C6
7B
ENDCHAR
STARTCHAR uni1EB0
ENCODING 7856
SWIDTH 744 0
DWIDTH 13 0
BBX 13 21 0 0
BITMAP
1800
0400
0200
0000
1080
0F00
0F00
0000
0200
0600
0700
0700
0980
0980
11C0
10C0
3FC0
2060
2060
4030
E0F8
ENDCHAR
STARTCHAR uni1EB1
ENCODING 7857
SWIDTH 543 0
DWIDTH 10 0
BBX 8 17 1 0
BITMAP
60
10
08
00
42
3C
3C
00
7C
46
46
06
3E
E6
C6
C6
7B
ENDCHAR
STARTCHAR uni1EB4
ENCODING 7860
SWIDTH 744 0
DWIDTH 13 0
BBX 13 20 0 0
BITMAP
0C80
1300
0000
1080
0F00
0F00
0000
0200
0600
0700
0700
0980
0980
11C0
10C0
3FC0
2060
2060
4030
E0F8
ENDCHAR
STARTCHAR uni1EB5
ENCODING 7861
SWIDTH 543 0
DWIDTH 10 0
BBX 8 16 1 0
BITMAP
32
4C
00
42
3C
3C
00
7C
46
46
06
3E
E6
C6
C6
7B
ENDCHAR
STARTCHAR uni1EB6
ENCODING 7862
SWIDTH 744 0
DWIDTH 13 0
BBX 13 20 0 -3
BITMAP
0840
0780
0780
0000
0200
0600
0700
0700
0980
0980
11C0
10C0
3FC0
2060
2060
4030
E0F8
0000
0300
0300
ENDCHAR
STARTCHAR uni1EB7
ENCODING 7863
SWIDTH 543 0
DWIDTH 10 0
BBX 8 16 1 -3
BITMAP
42
3C
3C
00
7C
46
46
06
3E
E6
C6
C6
7B
00
18
18
ENDCHAR
STARTCHAR uni1EB8
ENCODING 7864
SWIDTH 566 0
DWIDTH 10 0
BBX 10 16 0 -3
BITMAP
FFC0
3040
3040
3000
3000
3100
3F00
3100
3000
3000
3040
3040
FFC0
0000
0C00
0C00
ENDCHAR
STARTCHAR uni1EB9
ENCODING 7865
SWIDTH 530 0
DWIDTH 10 0
BBX 8 12 1 -3
BITMAP
3C
62
C3
C3
FF
C0
C0
61
3E
00
18
18
ENDCHAR
STARTCHAR uni1EBC
ENCODING 7868
SWIDTH 566 0
DWIDTH 10 0
BBX 10 16 0 0
BITMAP
1900
2600
0000
FFC0
3040
3040
3000
3000
3100
3F00
3100
3000
3000
3040
3040
FFC0
ENDCHAR
STARTCHAR uni1EBD
ENCODING 7869
SWIDTH 530 0
DWIDTH 10 0
BBX 8 12 1 0
BITMAP
32
4C
00
3C
62
C3
C3
FF
C0
C0
61
3E
ENDCHAR
STARTCHAR uni1EBE
ENCODING 7870
SWIDTH 566 0
DWIDTH 10 0
BBX 10 21 0 0
BITMAP
0300
0400
0800
0000
0C00
1200
2100
0000
FFC0
3040
3040
3000
3000
3100
3F00
3100
3000
3000
3040
3040
FFC0
ENDCHAR
STARTCHAR uni1EBF
ENCODING 7871
SWIDTH 530 0
DWIDTH 10 0
BBX 8 17 1 0
BITMAP
06
08
10
00
18
24
42
00
3C
62
C3
C3
FF
C0
C0
61
3E
ENDCHAR
STARTCHAR uni1EC0
ENCODING 7872
SWIDTH 566 0
DWIDTH 10 0
BBX 10 21 0 0
BITMAP
3000
0800
0400
0000
0C00
1200
2100
0000
FFC0
3040
3040
3000
3000
3100
3F00
3100
3000
3000
3040
3040
FFC0
ENDCHAR
STARTCHAR uni1EC1
ENCODING 7873
SWIDTH 530 0
DWIDTH 10 0
BBX 8 17 1 0
BITMAP
60
10
08
00
18
24
42
00
3C
62
C3
C3
FF
C0
C0
61
3E
ENDCHAR
STARTCHAR uni1EC4
ENCODING 7876
SWIDTH 566 0
DWIDTH 10 0
BBX 10 20 0 0
BITMAP
1900
2600
0000
0C00
1200
2100
0000
FFC0
3040
3040
3000
3000
3100
3F00
3100
3000
3000
3040
3040
FFC0
ENDCHAR
STARTCHAR uni1EC5
ENCODING 7877
SWIDTH 530 0
DWIDTH 10 0
BBX 8 16 1 0
BITMAP
32
4C
00
18
24
42
00
3C
62
C3
C3
FF
C0
C0
61
3E
ENDCHAR
STARTCHAR uni1EC6
ENCODING 7878
SWIDTH 566 0
DWIDTH 10 0
BBX 10 20 0 -3
BITMAP
0C00
1200
2100
0000
FFC0
3040
3040
3000
3000
3100
3F00
3100
3000
3000
3040
3040
FFC0
0000
0C00
0C00
ENDCHAR
STARTCHAR uni1EC7
ENCODING 7879
SWIDTH 530 0
DWIDTH 10 0
BBX 8 16 1 -3
BITMAP
18
24
42
00
3C
62
C3
C3
FF
C0
C0
61
3E
00
18
18
ENDCHAR
STARTCHAR uni1ECA
ENCODING 7882
SWIDTH 325 0
DWIDTH 6 0
BBX 6 16 0 -3
BITMAP
FC
30
30
30
30
30
30
30
30
30
30
30
FC
00
30
30
ENDCHAR
STARTCHAR uni1ECB
ENCODING 7883
SWIDTH 307 0
DWIDTH 6 0
BBX 6 16 0 -3
BITMAP
30
30
00
00
F0
30
30
30
30
30
30
30
FC
00
30
30
ENDCHAR
STARTCHAR uni1ECC
ENCODING 7884
SWIDTH 777 0
DWIDTH 14 0
BBX 12 16 1 -3
BITMAP
1F80
30C0
6060
6060
C030
C030
C030
C030
C030
6060
6060
30C0
1F80
0000
0600
0600
ENDCHAR
STARTCHAR uni1ECD
ENCODING 7885
SWIDTH 602 0
DWIDTH 11 0
BBX 9 12 1 -3
BITMAP
3E00
6300
C180
C180
C180
C180
C180
6300
3E00
0000
0C00
0C00
ENDCHAR
STARTCHAR uni1ED0
ENCODING 7888
SWIDTH 777 0
DWIDTH 14 0
BBX 12 21 1 0
BITMAP
0180
0200
0400
0000
0600
0900
1080
0000
1F80
30C0
6060
6060
C030
C030
C030
C030
C030
6060
6060
30C0
1F80
ENDCHAR
STARTCHAR uni1ED1
ENCODING 7889
SWIDTH 602 0
DWIDTH 11 0
BBX 9 17 1 0
BITMAP
0600
0800
1000
0000
1800
2400
4200
0000
3E00
6300
C180
C180
C180
C180
C180
6300
3E00
ENDCHAR
STARTCHAR uni1ED2
ENCODING 7890
SWIDTH 777 0
DWIDTH 14 0
BBX 12 21 1 0
BITMAP
1800
0400
0200
0000
0600
0900
1080
0000
1F80
30C0
6060
6060
C030
C030
C030
C030
C030
6060
6060
30C0
1F80
ENDCHAR
STARTCHAR uni1ED3
ENCODING 7891
SWIDTH 602 0
DWIDTH 11 0
BBX 9 17 1 0
BITMAP
6000
1000
0800
0000
1800
2400
4200
0000
3E00
6300
C180
C180
C180
C180
C180
6300
3E00
ENDCHAR
STARTCHAR uni1ED6
ENCODING 7894
SWIDTH 777 0
DWIDTH 14 0
BBX 12 20 1 0
BITMAP
0C80
1300
0000
0600
0900
1080
0000
1F80
30C0
6060
6060
C030
C030
C030
C030
C030
6060
6060
30C0
1F80
ENDCHAR
STARTCHAR uni1ED7
ENCODING 7895
SWIDTH 602 0
DWIDTH 11 0
BBX 9 16 1 0
BITMAP
3200
4C00
0000
1800
2400
4200
0000
3E00
6300
C180
C180
C180
C180
C180
6300
3E00
ENDCHAR
STARTCHAR uni1ED8
ENCODING 7896
SWIDTH 777 0
DWIDTH 14 0
BBX 12 20 1 -3
BITMAP
0600
0900
1080
0000
1F80
30C0
6060
6060
C030
C030
C030
C030
C030
6060
6060
30C0
1F80
0000
0600
0600
ENDCHAR
STARTCHAR uni1ED9
ENCODING 7897
SWIDTH 602 0
DWIDTH 11 0
BBX 9 16 1 -3
BITMAP
0C00
1200
2100
0000
3E00
6300
C180
C180
C180
C180
C180
6300
3E00
0000
0C00
0C00
ENDCHAR
STARTCHAR uni1EDA
ENCODING 7898
SWIDTH 777 0
DWIDTH 14 0
BBX 13 17 1 0
BITMAP
00C0
0100
0200
0000
1F98
30D8
6068
6068
C030
C030
C030
C030
C030
6060
6060
30C0
1F80
ENDCHAR
STARTCHAR uni1EDB
ENCODING 7899
SWIDTH 602 0
DWIDTH 11 0
BBX 10 13 1 0
BITMAP
0180
0200
0400
0000
3EC0
63C0
C1C0
C1C0
C180
C180
C180
6300
3E00
ENDCHAR
STARTCHAR uni1EDC
ENCODING 7900
SWIDTH 777 0
DWIDTH 14 0
BBX 13 17 1 0
BITMAP
0C00
0200
0100
0000
1F98
30D8
6068
6068
C030
C030
C030
C030
C030
6060
6060
30C0
1F80
ENDCHAR
STARTCHAR uni1EDD
ENCODING 7901
SWIDTH 602 0
DWIDTH 11 0
BBX 10 13 1 0
BITMAP
1800
0400
0200
0000
3EC0
63C0
C1C0
C1C0
C180
C180
C180
6300
3E00
ENDCHAR
STARTCHAR uni1EE0
ENCODING 7904
SWIDTH 777 0
DWIDTH 14 0
BBX 13 16 1 0
BITMAP
0640
0980
0000
1F98
30D8
6068
6068
C030
C030
C030
C030
C030
6060
6060
30C0
1F80
ENDCHAR
STARTCHAR uni1EE1
ENCODING 7905
SWIDTH 602 0
DWIDTH 11 0
BBX 10 12 1 0
BITMAP
0C80
1300
0000
3EC0
63C0
C1C0
C1C0
C180
C180
C180
6300
3E00
ENDCHAR
STARTCHAR uni1EE2
ENCODING 7906
SWIDTH 777 0
DWIDTH 14 0
BBX 13 16 1 -3
BITMAP
1F98
30D8
6068
6068
C030
C030
C030
C030
C030
6060
6060
30C0
1F80
0000
0600
0600
ENDCHAR
STARTCHAR uni1EE3
ENCODING 7907
SWIDTH 602 0
DWIDTH 11 0
BBX 10 12 1 -3
BITMAP
3EC0
63C0
C1C0
C1C0
C180
C180
C180
6300
3E00
0000
0C00
0C00
ENDCHAR
STARTCHAR uni1EE4
ENCODING 7908
SWIDTH 719 0
DWIDTH 13 0
BBX 13 16 0 -3
BITMAP
FCF8
3020
3020
3020
3020
3020
3020
3020
3020
3020
3020
1840
0F80
0000
0600
0600
ENDCHAR
STARTCHAR uni1EE5
ENCODING 7909
SWIDTH 633 0
DWIDTH 11 0
BBX 12 12 0 -3
BITMAP
F3C0
30C0
30C0
30C0
30C0
30C0
30C0
31C0
1EF0
0000
0300
0300
ENDCHAR
STARTCHAR uni1EE8
ENCODING 7912
SWIDTH 719 0
DWIDTH 13 0
BBX 14 17 0 0
BITMAP
00C0
0100
0200
0000
FCFC
302C
3024
3024
3028
3020
3020
3020
3020
3020
3020
1840
0F80
ENDCHAR
STARTCHAR uni1EE9
ENCODING 7913
SWIDTH 633 0
DWIDTH 11 0
BBX 13 13 0 0
BITMAP
00C0
0100
0200
0000
F3D8
30D8
30C8
30C8
30D0
30C0
30C0
31C0
1EF0
ENDCHAR
STARTCHAR uni1EEA
ENCODING 7914
SWIDTH 719 0
DWIDTH 13 0
BBX 14 17 0 0
BITMAP
0C00
0200
0100
0000
FCFC
302C
3024
3024
3028
3020
3020
3020
3020
3020
3020
1840
0F80
ENDCHAR
STARTCHAR uni1EEB
ENCODING 7915
SWIDTH 633 0
DWIDTH 11 0
BBX 13 13 0 0
BITMAP
0C00
0200
0100
0000
F3D8
30D8
30C8
30C8
30D0
30C0
30C0
31C0
1EF0
ENDCHAR
STARTCHAR uni1EEE
ENCODING 7918
SWIDTH 719 0
DWIDTH 13 0
BBX 14 16 0 0
BITMAP
0640
0980
0000
FCFC
302C
3024
3024
3028
3020
3020
3020
3020
3020
3020
1840
0F80
ENDCHAR
STARTCHAR uni1EEF
ENCODING 7919
SWIDTH 633 0
DWIDTH 11 0
BBX 13 12 0 0
BITMAP
0640
0980
0000
F3D8
30D8
30C8
30C8
30D0
30C0
30C0
31C0
1EF0
ENDCHAR
STARTCHAR uni1EF0
ENCODING 7920
SWIDTH 719 0
DWIDTH 13 0
BBX 14 16 0 -3
BITMAP
FCFC
302C
3024
3024
3028
3020
3020
3020
3020
3020
3020
1840
0F80
0000
0600
0600
ENDCHAR
STARTCHAR uni1EF1
ENCODING 7921
SWIDTH 633 0
DWIDTH 11 0
BBX 13 12 0 -3
BITMAP
F3D8
30D8
30C8
30C8
30D0
30C0
30C0
31C0
1EF0
0000
0300
0300
ENDCHAR
STARTCHAR Ygrave
ENCODING 7922
SWIDTH 678 0
DWIDTH 12 0
BBX 12 17 0 0
BITMAP
1800
0400
0200
0000
F870
7020
3040
38C0
1C80
0D00
0F00
0600
0600
0600
0600
0600
1F80
ENDCHAR
STARTCHAR ygrave
ENCODING 7923
SWIDTH 551 0
DWIDTH 10 0
BBX 10 16 0 -3
BITMAP
3000
0800
0400
0000
F1C0
6080
7080
3100
3900
1A00
1E00
0C00
0C00
0800
1800
7000
ENDCHAR
STARTCHAR uni1EF4
ENCODING 7924
SWIDTH 678 0
DWIDTH 12 0
BBX 12 16 0 -3
BITMAP
F870
7020
3040
38C0
1C80
0D00
0F00
0600
0600
0600
0600
0600
1F80
0000
0600
0600
ENDCHAR
STARTCHAR uni1EF5
ENCODING 7925
SWIDTH 551 0
DWIDTH 10 0
BBX 10 15 0 -6
BITMAP
F1C0
6080
7080
3100
3900
1A00
1E00
0C00
0C00
0800
1800
7000
0000
1800
1800
ENDCHAR
STARTCHAR uni1EF8
ENCODING 7928
SWIDTH 678 0
DWIDTH 12 0
BBX 12 16 0 0
BITMAP
0C80
1300
0000
F870
7020
3040
38C0
1C80
0D00
0F00
0600
0600
0600
0600
0600
1F80
ENDCHAR
STARTCHAR uni1EF9
ENCODING 7929
SWIDTH 551 0
DWIDTH 10 0
BBX 10 15 0 -3
BITMAP
1900
2600
0000
F1C0
6080
7080
3100
3900
1A00
1E00
0C00
0C00
0800
1800
7000
ENDCHAR
STARTCHAR uni2000
ENCODING 8192
SWIDTH 500 0
DWIDTH 9 0
BBX 1 1 0 0
BITMAP
00
ENDCHAR
STARTCHAR uni2001
ENCODING 8193
SWIDTH 1000 0
DWIDTH 19 0
BBX 1 1 0 0
BITMAP
00
ENDCHAR
STARTCHAR uni2002
ENCODING 8194
SWIDTH 500 0
DWIDTH 9 0
BBX 1 1 0 0
BITMAP
00
ENDCHAR
STARTCHAR uni2003
ENCODING 8195
SWIDTH 1000 0
DWIDTH 19 0
BBX 1 1 0 0
BITMAP
00
ENDCHAR
STARTCHAR uni2004
ENCODING 8196
SWIDTH 333 0
DWIDTH 6 0
BBX 1 1 0 0
BITMAP
00
ENDCHAR
STARTCHAR uni2005
ENCODING 8197
SWIDTH 250 0
DWIDTH 5 0
BBX 1 1 0 0
BITMAP
00
ENDCHAR
STARTCHAR uni2006
ENCODING 8198
SWIDTH 167 0
DWIDTH 3 0
BBX 1 1 0 0
BITMAP
00
ENDCHAR
STARTCHAR uni2007
ENCODING 8199
SWIDTH 608 0
DWIDTH 11 0
BBX 1 1 0 0
BITMAP
00
ENDCHAR
STARTCHAR uni2008
ENCODING 8200
SWIDTH 265 0
DWIDTH 5 0
BBX 1 1 0 0
BITMAP
00
ENDCHAR
STARTCHAR uni2009
ENCODING 8201
SWIDTH 200 0
DWIDTH 4 0
BBX 1 1 0 0
BITMAP
00
ENDCHAR
STARTCHAR uni200A
ENCODING 8202
SWIDTH 100 0
DWIDTH 2 0
BBX 1 1 0 0
BITMAP
00
ENDCHAR
STARTCHAR uni200B
ENCODING 8203
SWIDTH 0 0
DWIDTH 0 0
BBX 1 1 0 0
BITMAP
00
ENDCHAR
STARTCHAR uni2010
ENCODING 8208
SWIDTH 325 0
DWIDTH 6 0
BBX 4 1 1 5
BITMAP
F0
ENDCHAR
STARTCHAR uni2011
ENCODING 8209
SWIDTH 325 0
DWIDTH 6 0
BBX 4 1 1 5
BITMAP
F0
ENDCHAR
STARTCHAR figuredash
ENCODING 8210
SWIDTH 500 0
DWIDTH 9 0
BBX 7 1 1 5
BITMAP
FE
ENDCHAR
STARTCHAR endash
ENCODING 8211
SWIDTH 500 0
DWIDTH 9 0
BBX 7 1 1 5
BITMAP
FE
ENDCHAR
STARTCHAR emdash
ENCODING 8212
SWIDTH 1000 0
DWIDTH 18 0
BBX 16 1 1 5
BITMAP
FFFF
ENDCHAR
STARTCHAR afii00208
ENCODING 8213
SWIDTH 1000 0
DWIDTH 18 0
BBX 16 1 1 5
BITMAP
FFFF
ENDCHAR
STARTCHAR quoteleft
ENCODING 8216
SWIDTH 265 0
DWIDTH 5 0
BBX 2 5 1 8
BITMAP
40
80
80
C0
C0
ENDCHAR
STARTCHAR quoteright
ENCODING 8217
SWIDTH 265 0
DWIDTH 5 0
BBX 2 5 1 8
BITMAP
C0
C0
40
40
80
ENDCHAR
STARTCHAR quotesinglbase
ENCODING 8218
SWIDTH 265 0
DWIDTH 5 0
BBX 2 5 1 -3
BITMAP
C0
C0
40
40
80
ENDCHAR
STARTCHAR quotereversed
ENCODING 8219
SWIDTH 265 0
DWIDTH 5 0
BBX 2 5 1 8
BITMAP
C0
C0
80
80
40
ENDCHAR
STARTCHAR quotedblleft
ENCODING 8220
SWIDTH 458 0
DWIDTH 8 0
BBX 5 5 2 8
BITMAP
48
90
90
D8
D8
ENDCHAR
STARTCHAR quotedblright
ENCODING 8221
SWIDTH 458 0
DWIDTH 8 0
BBX 5 5 2 8
BITMAP
D8
D8
48
48
90
ENDCHAR
STARTCHAR quotedblbase
ENCODING 8222
SWIDTH 458 0
DWIDTH 8 0
BBX 5 5 2 -3
BITMAP
D8
D8
48
48
90
ENDCHAR
STARTCHAR uni201F
ENCODING 8223
SWIDTH 458 0
DWIDTH 8 0
BBX 5 5 2 8
BITMAP
D8
D8
90
90
48
ENDCHAR
STARTCHAR dagger
ENCODING 8224
SWIDTH 608 0
DWIDTH 11 0
BBX 7 16 2 -3
BITMAP
18
18
18
10
10
FE
10
10
10
10
10
18
18
18
18
18
ENDCHAR
STARTCHAR daggerdbl
ENCODING 8225
SWIDTH 608 0
DWIDTH 11 0
BBX 7 16 2 -3
BITMAP
18
18
18
10
10
FE
10
10
10
10
10
FE
10
10
18
18
ENDCHAR
STARTCHAR bullet
ENCODING 8226
SWIDTH 608 0
DWIDTH 11 0
BBX 6 5 2 3
BITMAP
78
FC
FC
FC
78
ENDCHAR
STARTCHAR ellipsis
ENCODING 8230
SWIDTH 1000 0
DWIDTH 18 0
BBX 11 2 4 0
BITMAP
CC60
CC60
ENDCHAR
STARTCHAR perthousand
ENCODING 8240
SWIDTH 1024 0
DWIDTH 18 0
BBX 17 13 1 0
BITMAP
706000
C84000
888000
890000
8B0000
720000
05C700
0B2C80
1A2880
122880
222880
422880
C1C700
ENDCHAR
STARTCHAR guilsinglleft
ENCODING 8249
SWIDTH 339 0
DWIDTH 6 0
BBX 4 7 1 1
BITMAP
10
20
40
C0
40
20
10
ENDCHAR
STARTCHAR guilsinglright
ENCODING 8250
SWIDTH 339 0
DWIDTH 6 0
BBX 4 7 1 1
BITMAP
80
40
60
30
20
40
80
ENDCHAR
STARTCHAR fraction
ENCODING 8260
SWIDTH 36 0
DWIDTH 1 0
BBX 11 13 -4 0
BITMAP
0060
0040
0080
0100
0300
0200
0400
0800
1800
1000
2000
4000
C000
ENDCHAR
STARTCHAR oneinferior
ENCODING 8321
SWIDTH 365 0
DWIDTH 7 0
BBX 3 9 -11 -4
BITMAP
C0
40
40
40
40
40
40
40
E0
ENDCHAR
STARTCHAR twoinferior
ENCODING 8322
SWIDTH 365 0
DWIDTH 7 0
BBX 5 9 -10 -4
BITMAP
70
88
88
08
10
20
40
80
F8
ENDCHAR
STARTCHAR threeinferior
ENCODING 8323
SWIDTH 365 0
DWIDTH 7 0
BBX 5 9 -10 -4
BITMAP
F0
88
08
08
70
08
08
88
F0
ENDCHAR
STARTCHAR uni20A5
ENCODING 8357
SWIDTH 946 0
DWIDTH 17 0
BBX 18 16 0 -3
BITMAP
000400
000800
000800
001000
F79E00
38E300
30E300
30C300
30C300
30C300
30C300
31C300
FFFFC0
020000
020000
040000
ENDCHAR
STARTCHAR uni20A6
ENCODING 8358
SWIDTH 751 0
DWIDTH 14 0
BBX 14 13 0 0
BITMAP
F07C
3010
3810
2C10
3FF0
2710
2390
3FF0
20D0
20F0
2070
2030
F810
ENDCHAR
STARTCHAR uni20A9
ENCODING 8361
SWIDTH 925 0
DWIDTH 17 0
BBX 17 13 0 0
BITMAP
F88780
60C100
70C200
31C200
3FFE00
316400
1A6400
1FFC00
1A3C00
1C3800
0C3800
0C1800
081000
ENDCHAR
STARTCHAR Euro
ENCODING 8364
SWIDTH 695 0
DWIDTH 12 0
BBX 13 13 -2 0
BITMAP
03F0
0618
0C08
1C08
FFC0
1800
1800
FFC0
1800
0C00
0C00
0608
03F0
ENDCHAR
STARTCHAR uni20AD
ENCODING 8365
SWIDTH 708 0
DWIDTH 13 0
BBX 12 13 1 0
BITMAP
FCE0
30C0
3180
3300
3600
3400
FFF0
3600
3700
3380
31C0
30E0
F9F0
ENDCHAR
STARTCHAR uni2103
ENCODING 8451
SWIDTH 941 0
DWIDTH 17 0
BBX 15 13 1 0
BITMAP
E0FC
A186
E302
0702
0600
0600
0600
0600
0600
0300
0300
0182
00FC
ENDCHAR
STARTCHAR uni2109
ENCODING 8457
SWIDTH 794 0
DWIDTH 15 0
BBX 13 13 1 0
BITMAP
EFF8
A308
E308
0300
0300
0310
03F0
0310
0300
0300
0300
0300
0F80
ENDCHAR
STARTCHAR trademark
ENCODING 8482
SWIDTH 904 0
DWIDTH 16 0
BBX 16 7 0 6
BITMAP
FEE7
9276
107E
107A
105A
1052
7CC3
ENDCHAR
STARTCHAR uni212A
ENCODING 8490
SWIDTH 708 0
DWIDTH 13 0
BBX 12 13 1 0
BITMAP
FCE0
30C0
3180
3300
3600
3400
3C00
3600
3700
3380
31C0
30E0
F9F0
ENDCHAR
STARTCHAR uni212B
ENCODING 8491
SWIDTH 744 0
DWIDTH 13 0
BBX 13 17 0 0
BITMAP
0700
0500
0700
0000
0200
0600
0700
0700
0980
0980
11C0
10C0
3FC0
2060
2060
4030
E0F8
ENDCHAR
STARTCHAR uni2132
ENCODING 8498
SWIDTH 548 0
DWIDTH 10 0
BBX 9 13 0 0
BITMAP
0F80
0600
0600
0600
0600
4600
7E00
4600
0600
0600
8600
8600
FF80
ENDCHAR
STARTCHAR universal
ENCODING 8704
SWIDTH 744 0
DWIDTH 13 0
BBX 13 13 0 0
BITMAP
E0F8
4030
2060
2060
3FC0
10C0
11C0
0980
0980
0700
0700
0600
0200
ENDCHAR
STARTCHAR existential
ENCODING 8707
SWIDTH 566 0
DWIDTH 10 0
BBX 10 13 0 0
BITMAP
FFC0
8300
8300
0300
0300
2300
3F00
2300
0300
0300
8300
8300
FFC0
ENDCHAR
STARTCHAR uni2204
ENCODING 8708
SWIDTH 566 0
DWIDTH 10 0
BBX 10 16 0 -1
BITMAP
0040
0080
FFC0
8300
8300
0300
0300
2700
3F00
2B00
0B00
1300
9300
A300
FFC0
4000
ENDCHAR
STARTCHAR minus
ENCODING 8722
SWIDTH 608 0
DWIDTH 11 0
BBX 10 1 0 5
BITMAP
FFC0
ENDCHAR
STARTCHAR fraction
ENCODING 8725
SWIDTH 36 0
DWIDTH 1 0
BBX 11 13 -4 0
BITMAP
0060
0040
0080
0100
0300
0200
0400
0800
1800
1000
2000
4000
C000
ENDCHAR
STARTCHAR periodcentered
ENCODING 8729
SWIDTH 608 0
DWIDTH 11 0
BBX 2 2 4 4
BITMAP
C0
C0
ENDCHAR
STARTCHAR uni2236
ENCODING 8758
SWIDTH 265 0
DWIDTH 5 0
BBX 2 9 1 0
BITMAP
C0
C0
00
00
00
00
00
C0
C0
ENDCHAR
STARTCHAR uni2259
ENCODING 8793
SWIDTH 608 0
DWIDTH 11 0
BBX 10 8 0 3
BITMAP
0C00
1200
2100
0000
FFC0
0000
0000
FFC0
ENDCHAR
STARTCHAR uni225A
ENCODING 8794
SWIDTH 608 0
DWIDTH 11 0
BBX 10 8 0 3
BITMAP
2100
1200
0C00
0000
FFC0
0000
0000
FFC0
ENDCHAR
STARTCHAR notequal
ENCODING 8800
SWIDTH 608 0
DWIDTH 11 0
BBX 10 16 0 -3
BITMAP
0040
0080
0080
0100
0100
0200
FFC0
0400
0400
FFC0
0800
1000
1000
2000
2000
4000
ENDCHAR
STARTCHAR equivalence
ENCODING 8801
SWIDTH 608 0
DWIDTH 11 0
BBX 10 5 0 3
BITMAP
FFC0
0000
FFC0
0000
FFC0
ENDCHAR
STARTCHAR uni2262
ENCODING 8802
SWIDTH 608 0
DWIDTH 11 0
BBX 10 16 0 -2
BITMAP
0040
0080
0080
0100
0100
0200
FFC0
0400
FFC0
0800
FFC0
1000
1000
2000
2000
4000
ENDCHAR
STARTCHAR lessequal
ENCODING 8804
SWIDTH 608 0
DWIDTH 11 0
BBX 10 13 0 -2
BITMAP
0040
0180
0600
0C00
3000
C000
3000
0C00
0700
0180
0040
0000
FFC0
ENDCHAR
STARTCHAR greaterequal
ENCODING 8805
SWIDTH 608 0
DWIDTH 11 0
BBX 10 13 0 -2
BITMAP
8000
6000
3800
0C00
0300
00C0
0300
0C00
1800
6000
8000
0000
FFC0
ENDCHAR
STARTCHAR uni226E
ENCODING 8814
SWIDTH 608 0
DWIDTH 11 0
BBX 10 16 0 -2
BITMAP
0040
0080
0080
0140
0180
0600
0E00
3400
C400
3800
0C00
1700
1180
2040
2000
4000
ENDCHAR
STARTCHAR uni226F
ENCODING 8815
SWIDTH 608 0
DWIDTH 11 0
BBX 10 16 0 -2
BITMAP
0040
0080
0080
8100
6100
3A00
0E00
0700
04C0
0B00
0C00
1800
7000
A000
2000
4000
ENDCHAR
STARTCHAR uni2270
ENCODING 8816
SWIDTH 608 0
DWIDTH 11 0
BBX 10 16 0 -3
BITMAP
0040
0080
00C0
0180
0700
0E00
3200
C400
3400
0C00
0F00
1180
1040
2000
FFC0
4000
ENDCHAR
STARTCHAR uni2271
ENCODING 8817
SWIDTH 608 0
DWIDTH 11 0
BBX 10 16 0 -3
BITMAP
0040
0080
8080
6100
3900
0E00
0300
04C0
0700
0C00
1800
7000
9000
2000
FFC0
4000
ENDCHAR
STARTCHAR fi
ENCODING -1
SWIDTH 657 0
DWIDTH 12 0
BBX 12 14 0 0
BITMAP
1E00
32C0
32C0
3000
3000
FFC0
30C0
30C0
30C0
30C0
30C0
30C0
30C0
F9F0
ENDCHAR
STARTCHAR fl
ENCODING -1
SWIDTH 663 0
DWIDTH 12 0
BBX 12 14 0 0
BITMAP
1FC0
31C0
30C0
30C0
30C0
FCC0
30C0
30C0
30C0
30C0
30C0
30C0
30C0
FFF0
ENDCHAR
ENDFONT
